<?xml version="1.0" encoding="UTF-8"?>
<svg version="1.1" xmlns="http://www.w3.org/2000/svg" width="325" height="86">
<path d="M0 0 C27.06 0 54.12 0 82 0 C82 28.38 82 56.76 82 86 C54.94 86 27.88 86 0 86 C0 57.62 0 29.24 0 0 Z " fill="#23BAF2" transform="translate(0,0)"/>
<path d="M0 0 C0.9075 0.00257812 1.815 0.00515625 2.75 0.0078125 C4.11125 0.00394531 4.11125 0.00394531 5.5 0 C7.75 0.1328125 7.75 0.1328125 8.75 1.1328125 C8.98287008 2.81465198 9.16264166 4.5040541 9.3125 6.1953125 C9.39628906 7.11441406 9.48007813 8.03351562 9.56640625 8.98046875 C9.62699219 9.69074219 9.68757813 10.40101562 9.75 11.1328125 C10.34167969 11.04902344 10.93335938 10.96523438 11.54296875 10.87890625 C15.92498892 10.31417608 19.41140871 10.11196749 23.75 11.1328125 C24.74 10.8028125 25.73 10.4728125 26.75 10.1328125 C28.70475009 9.9880162 30.6651138 9.91213748 32.625 9.8828125 C34.16800781 9.84414063 34.16800781 9.84414063 35.7421875 9.8046875 C39.16220687 10.17778052 41.00025853 11.10253743 43.75 13.1328125 C45.0808911 15.79459471 44.86268993 17.82020646 44.84765625 20.796875 C44.84443359 21.91835938 44.84121094 23.03984375 44.83789062 24.1953125 C44.82951172 25.3709375 44.82113281 26.5465625 44.8125 27.7578125 C44.80798828 28.94117187 44.80347656 30.12453125 44.79882812 31.34375 C44.78701467 34.27348757 44.77054258 37.20312522 44.75 40.1328125 C42.02119539 40.32837182 39.29228931 40.51451697 36.5625 40.6953125 C35.79357422 40.75138672 35.02464844 40.80746094 34.23242188 40.86523438 C30.16287655 41.12722227 26.74883726 41.0437704 22.75 40.1328125 C20.70930235 40.06655608 18.66664311 40.04728645 16.625 40.0703125 C15.59117187 40.07933594 14.55734375 40.08835938 13.4921875 40.09765625 C12.58726562 40.10925781 11.68234375 40.12085938 10.75 40.1328125 C6.41666667 40.1328125 2.08333333 40.1328125 -2.25 40.1328125 C-3.24 37.1628125 -3.24 37.1628125 -4.25 34.1328125 C-4.765625 34.9165625 -5.28125 35.7003125 -5.8125 36.5078125 C-9.57472692 40.55944149 -13.38860401 40.96661643 -18.75 41.4453125 C-23.7851211 40.99574812 -27.77655795 39.79637611 -31.1875 35.9453125 C-31.538125 35.3471875 -31.88875 34.7490625 -32.25 34.1328125 C-32.765625 34.9165625 -33.28125 35.7003125 -33.8125 36.5078125 C-37.57472692 40.55944149 -41.38860401 40.96661643 -46.75 41.4453125 C-51.57840474 41.01420493 -55.50162854 39.65558765 -59.1875 36.4453125 C-59.538125 36.0121875 -59.88875 35.5790625 -60.25 35.1328125 C-61.013125 35.7721875 -61.77625 36.4115625 -62.5625 37.0703125 C-67.31432831 40.71706446 -71.59271079 40.31584042 -77.3125 40.3203125 C-78.55483398 40.33868164 -78.55483398 40.33868164 -79.82226562 40.35742188 C-80.61439453 40.35935547 -81.40652344 40.36128906 -82.22265625 40.36328125 C-82.94718994 40.36739014 -83.67172363 40.37149902 -84.41821289 40.37573242 C-86.25 40.1328125 -86.25 40.1328125 -88.25 38.1328125 C-88.4617572 35.65892375 -88.55399471 33.29970126 -88.55078125 30.82421875 C-88.55506638 30.10169418 -88.5593515 29.37916962 -88.56376648 28.63475037 C-88.56951237 27.10571338 -88.57000812 25.57664906 -88.56567383 24.04760742 C-88.56251671 21.70769576 -88.58595758 19.36905183 -88.61132812 17.02929688 C-88.61360139 15.54427243 -88.61430449 14.05924458 -88.61328125 12.57421875 C-88.622491 11.874142 -88.63170074 11.17406525 -88.64118958 10.45277405 C-88.61370298 7.56677061 -88.57617931 5.60283009 -86.90356445 3.19262695 C-82.28764208 0.2341567 -74.58355213 1.65170147 -69.46484375 2.70703125 C-63.68251534 4.48403949 -63.68251534 4.48403949 -61.25 8.1328125 C-60.8359375 10.61328125 -60.8359375 10.61328125 -60.625 13.3203125 C-60.55023438 14.22136719 -60.47546875 15.12242188 -60.3984375 16.05078125 C-60.32496094 17.08138672 -60.32496094 17.08138672 -60.25 18.1328125 C-59.693125 16.988125 -59.693125 16.988125 -59.125 15.8203125 C-56.72888307 12.38587823 -55.22858295 11.48268886 -51.25 10.1328125 C-44.95435352 9.44891043 -39.6505878 9.48741573 -34.25 13.1328125 C-32.375 14.8203125 -32.375 14.8203125 -31.25 16.1328125 C-30.486875 15.3284375 -29.72375 14.5240625 -28.9375 13.6953125 C-24.60309108 9.56250399 -20.69749283 9.85725701 -14.984375 9.91015625 C-11.48193773 10.19535471 -9.13264198 11.13713728 -6.25 13.1328125 C-5.26 14.6178125 -5.26 14.6178125 -4.25 16.1328125 C-4.18941406 15.06160156 -4.12882812 13.99039063 -4.06640625 12.88671875 C-3.98201463 11.48956859 -3.89736594 10.09243393 -3.8125 8.6953125 C-3.77318359 7.98826172 -3.73386719 7.28121094 -3.69335938 6.55273438 C-3.29788148 0.19466661 -3.29788148 0.19466661 0 0 Z M19.75 20.1328125 C18.76 21.1228125 17.77 22.1128125 16.75 23.1328125 C17.41 24.7828125 18.07 26.4328125 18.75 28.1328125 C19.74 26.8128125 20.73 25.4928125 21.75 24.1328125 C21.09 22.8128125 20.43 21.4928125 19.75 20.1328125 Z M-46.25 21.1328125 C-48.58391203 23.91395306 -48.58391203 23.91395306 -47.875 26.8203125 C-47.66875 27.5834375 -47.4625 28.3465625 -47.25 29.1328125 C-46.26 28.8028125 -45.27 28.4728125 -44.25 28.1328125 C-44.25 26.1528125 -44.25 24.1728125 -44.25 22.1328125 C-44.91 21.8028125 -45.57 21.4728125 -46.25 21.1328125 Z M-18.25 21.1328125 C-20.58391203 23.91395306 -20.58391203 23.91395306 -19.875 26.8203125 C-19.66875 27.5834375 -19.4625 28.3465625 -19.25 29.1328125 C-18.26 28.8028125 -17.27 28.4728125 -16.25 28.1328125 C-16.25 26.1528125 -16.25 24.1728125 -16.25 22.1328125 C-16.91 21.8028125 -17.57 21.4728125 -18.25 21.1328125 Z M-75.25 26.1328125 C-75.25 27.1228125 -75.25 28.1128125 -75.25 29.1328125 C-74.26 28.8028125 -73.27 28.4728125 -72.25 28.1328125 C-73.24 27.4728125 -74.23 26.8128125 -75.25 26.1328125 Z " fill="#4674C5" transform="translate(172.25,18.8671875)"/>
<path d="M0 0 C1.25 6.625 1.25 6.625 -1 10 C-3.475 9.505 -3.475 9.505 -6 9 C-6 8.67 -6 8.34 -6 8 C-4.35 8 -2.7 8 -1 8 C-1.33 6.68 -1.66 5.36 -2 4 C-3.32 3.67 -4.64 3.34 -6 3 C-6.33 4.32 -6.66 5.64 -7 7 C-7 6.01 -7 5.02 -7 4 C-12.31411494 5.92391649 -12.31411494 5.92391649 -16 10 C-17.37648884 23.74701189 -14.24916632 34.04821603 -6 45 C-2.26650602 49.19663627 1.62355376 50.81718183 7 52 C6.99097656 52.6290625 6.98195313 53.258125 6.97265625 53.90625 C7.19441771 60.30840693 8.57764929 63.82236619 13.1171875 68.37109375 C17.97627588 72.57491088 22.17467145 73.56010125 28.46875 73.3515625 C33.77392069 72.61473324 37.60691665 70.43073425 41.3125 66.625 C45.50297852 60.10647786 46.49705876 55.25353203 46.6875 47.625 C46.72166016 46.69816406 46.75582031 45.77132812 46.79101562 44.81640625 C46.87299552 42.54439188 46.94230494 40.27273896 47 38 C46.01 38 45.02 38 44 38 C44.04640625 39.27875 44.0928125 40.5575 44.140625 41.875 C44.17817027 43.58330979 44.21456745 45.29164508 44.25 47 C44.28351563 47.83917969 44.31703125 48.67835937 44.3515625 49.54296875 C44.45453056 56.18440847 43.16638861 61.58433569 38.55175781 66.56225586 C34.52460323 70.13131844 31.86942391 70.8589114 26.6875 71.25 C21.91564455 70.92648438 18.04826363 69.93212497 14.484375 66.5703125 C10.28823094 61.72304263 9.88192623 58.25790988 10 52 C10.87011719 51.70609375 10.87011719 51.70609375 11.7578125 51.40625 C18.29230983 48.90459426 21.28339102 45.81432693 25 40 C25.721875 39.0925 26.44375 38.185 27.1875 37.25 C31.6693384 29.2136001 33.59573532 19.11698539 31.25 10.125 C29.17016586 6.58928197 26.83591605 5.27863868 23 4 C23 4.99 23 5.98 23 7 C23.78375 7.28875 24.5675 7.5775 25.375 7.875 C28 9 28 9 30 11 C31.7725149 23.22012676 27.90044383 32.80371628 20.875 42.625 C18.1003403 46.21481397 15.33705526 48.55431491 11 50 C6.94875548 50.38219288 4.5902098 50.30112745 0.9375 48.4375 C-7.44325615 41.48325553 -11.90950543 32.77574521 -14 22 C-14.13968112 20.14922512 -14.21970137 18.29329106 -14.25 16.4375 C-14.27578125 15.48746094 -14.3015625 14.53742187 -14.328125 13.55859375 C-13.95193763 10.62522798 -13.28811367 9.78834148 -11 8 C-10.34 8.33 -9.68 8.66 -9 9 C-9.66 9.66 -10.32 10.32 -11 11 C-12.52458706 22.22650471 -9.34873637 31.90420223 -2.81640625 40.90625 C-0.43035851 43.65661901 1.5043663 45.69815393 5.1484375 46.43359375 C10.60577368 46.44316802 13.85459048 45.86904889 18 42 C20.30150431 38.80722686 22.19872395 35.49628213 24 32 C24.34417969 31.33742188 24.68835937 30.67484375 25.04296875 29.9921875 C27.57912642 24.30071629 27.72698254 18.13686559 27 12 C26.34 11.34 25.68 10.68 25 10 C23.68 10 22.36 10 21 10 C19.68 10 18.36 10 17 10 C15 8 15 8 14.75 5 C15 2 15 2 17 0 C22.64362903 -0.61139315 26.52287782 1.81015165 31 5 C34.02024219 7.74821114 35.70943231 10.29890953 36.40234375 14.35546875 C36.60329548 19.54002347 35.68085697 23.96519048 33.8359375 28.7890625 C32.9661015 30.97577186 32.9661015 30.97577186 32.4140625 33.2109375 C29.92397263 42.42750391 23.87293265 49.51563652 15.6640625 54.2578125 C14 55 14 55 12 55 C13.75474646 60.5413046 14.8848775 63.80304843 20 67 C24.37595337 68.45865112 28.59102038 68.83479492 32.97265625 67.31640625 C37.50534412 64.99713284 39.23703566 62.66667031 41 58 C41.44497454 54.44963264 41.46465409 50.94946599 41.4375 47.375 C41.45748047 46.43398438 41.47746094 45.49296875 41.49804688 44.5234375 C41.61415282 39.13700511 41.61415282 39.13700511 39.04296875 34.62109375 C38.36878906 34.08613281 37.69460937 33.55117188 37 33 C35.82113137 29.96300986 35.59911034 27.22878697 36 24 C37.47597752 20.95926436 39.22384622 18.92655499 42 17 C46.48170634 16.11966483 48.40522025 16.68638886 52.4375 18.8125 C53.7059375 19.8953125 53.7059375 19.8953125 55 21 C55 21.99 55 22.98 55 24 C56.65 23.67 58.3 23.34 60 23 C60 42.14 60 61.28 60 81 C32.94 81 5.88 81 -22 81 C-22 73.41 -22 65.82 -22 58 C-18.266875 57.979375 -14.53375 57.95875 -10.6875 57.9375 C-9.51405029 57.928396 -8.34060059 57.91929199 -7.1315918 57.90991211 C-6.20515869 57.90741455 -5.27872559 57.90491699 -4.32421875 57.90234375 C-3.37635498 57.89710693 -2.42849121 57.89187012 -1.4519043 57.88647461 C1 58 1 58 4 59 C4.04289755 57.06890419 4.04289755 57.06890419 3 55 C1.32946437 54.33178575 -0.34310652 53.66804211 -2.02734375 53.03515625 C-5.9105828 50.99741695 -8.36825587 47.42126737 -11 44 C-11.721875 43.071875 -12.44375 42.14375 -13.1875 41.1875 C-18.86374758 31.20513356 -20.68300999 21.34055056 -19 10 C-16.66451998 5.20858541 -13.65950339 2.81281799 -8.9375 0.5 C-5.89423447 -0.01800264 -3.08116797 -0.14672228 0 0 Z " fill="#1E71FB" transform="translate(22,5)"/>
<path d="M0 0 C3.80172158 1.01657756 6.32297567 2.25803164 9 5.25 C10.24848816 7.88850535 11.11444644 10.45351506 12 13.25 C12.763125 12.445625 13.52625 11.64125 14.3125 10.8125 C18.64680693 6.67978874 22.54955829 6.97804285 28.26171875 7.0234375 C31.73755111 7.3110242 34.12947977 8.28595984 37 10.25 C37.495 11.24 37.495 11.24 38 12.25 C38.66 12.25 39.32 12.25 40 12.25 C40.639375 11.610625 41.27875 10.97125 41.9375 10.3125 C45.00310813 7.24689187 47.71262803 7.07590952 51.875 7 C54.93726264 7.0582009 57.16732834 7.3001985 60.125 8.1875 C62.77813701 11.10595071 62.43436315 13.46398351 62.2734375 17.2890625 C62 19.25 62 19.25 61 20.25 C57.33655389 20.38568319 54.49384279 20.41461426 51 19.25 C51.495 22.22 51.495 22.22 52 25.25 C52.63808594 25.16621094 53.27617187 25.08242188 53.93359375 24.99609375 C55.17302734 24.84333984 55.17302734 24.84333984 56.4375 24.6875 C57.67306641 24.53087891 57.67306641 24.53087891 58.93359375 24.37109375 C59.61550781 24.33113281 60.29742187 24.29117188 61 24.25 C62.57922406 25.82922406 62.207659 27.44443874 62.25 29.625 C62.27578125 30.41648437 62.3015625 31.20796875 62.328125 32.0234375 C62 34.25 62 34.25 60.8125 35.984375 C57.09058985 38.58329502 52.40582494 38.35431619 48 38.25 C45.08866652 37.63628684 43.57823849 36.87541122 41 35.25 C40.0625 33.0625 40.0625 33.0625 40 31.25 C39.34 31.25 38.68 31.25 38 31.25 C37.731875 31.86875 37.46375 32.4875 37.1875 33.125 C36 35.25 36 35.25 33 37.25 C27.59169519 38.75230689 22.68275565 38.76338308 17.3125 37.125 C13.35225865 34.88335395 12.17117928 33.15812271 10 29.25 C9.29875 30.19875 8.5975 31.1475 7.875 32.125 C5.42201052 35.44375048 2.98252543 36.28870076 -1 37.25 C-4.0893791 37.51726197 -7.15077134 37.52999254 -10.25 37.5 C-11.0646875 37.50773437 -11.879375 37.51546875 -12.71875 37.5234375 C-18.74652201 37.50347799 -18.74652201 37.50347799 -21 35.25 C-21.2117572 32.77611125 -21.30399471 30.41688876 -21.30078125 27.94140625 C-21.30506638 27.21888168 -21.3093515 26.49635712 -21.31376648 25.75193787 C-21.31951237 24.22290088 -21.32000812 22.69383656 -21.31567383 21.16479492 C-21.31251671 18.82488326 -21.33595758 16.48623933 -21.36132812 14.14648438 C-21.36360139 12.66145993 -21.36430449 11.17643208 -21.36328125 9.69140625 C-21.372491 8.9913295 -21.38170074 8.29125275 -21.39118958 7.56996155 C-21.36369637 4.68326382 -21.32520831 2.7191491 -19.65356445 0.30761719 C-14.6356073 -2.90186021 -5.62018792 -1.05023714 0 0 Z M-8 11.25 C-8 16.2 -8 21.15 -8 26.25 C-2.80753402 24.84252526 -2.80753402 24.84252526 -1.5 20.9375 C-0.70486065 17.31768406 -0.70486065 17.31768406 -2.125 14.375 C-3.99643407 11.8492787 -3.99643407 11.8492787 -8 11.25 Z M25 18.25 C22.66608797 21.03114056 22.66608797 21.03114056 23.375 23.9375 C23.58125 24.700625 23.7875 25.46375 24 26.25 C24.99 25.92 25.98 25.59 27 25.25 C27 23.27 27 21.29 27 19.25 C26.34 18.92 25.68 18.59 25 18.25 Z " fill="#4674C5" transform="translate(240,21.75)"/>
<path d="M0 0 C0 1.32 0 2.64 0 4 C-1.32 4.33 -2.64 4.66 -4 5 C-2.68 5 -1.36 5 0 5 C0.66 3.02 1.32 1.04 2 -1 C4.5654594 1.5654594 4.54046087 3.47686668 5 7 C8.66305234 7.74926071 11.42355152 8.2380014 15 7 C15 4.36 15 1.72 15 -1 C15.33 -1 15.66 -1 16 -1 C16.66 0.98 17.32 2.96 18 5 C19.258125 4.938125 20.51625 4.87625 21.8125 4.8125 C24.38014568 4.68622234 25.58333817 4.71783623 27.73046875 6.171875 C30.50617391 10.16889043 29.57330345 15.38652977 29 20 C26.55377999 28.49904643 22.4158354 36.18089911 15.6875 42 C11.68333772 43.48992085 8.20449459 43.87413032 4 43 C-3.32478598 39.01660045 -7.45156996 31.39621111 -9.8125 23.6875 C-11.20622948 18.08909228 -11.28575702 12.73630759 -11 7 C-11 6.67 -11 6.34 -11 6 C-12.62870386 7.62870386 -12.28853987 9.37038591 -12.375 11.625 C-12.26632458 22.04425624 -8.49681317 33.5605604 -1 41 C2.3301622 43.8341806 4.1611942 44.89514928 8.5 45.4375 C14.50235026 44.68720622 17.72389566 42.63897861 21.5625 38.0625 C27.91415584 29.31132974 30.92125119 20.82689084 30.57421875 9.94921875 C30.24735459 7.03701297 30.24735459 7.03701297 28.64453125 5.33203125 C26.8315981 4.15419342 26.8315981 4.15419342 24 3 C24 2.01 24 1.02 24 0 C28.29942535 0.47771393 30.2935135 1.61689187 33 5 C35.57924514 13.19589081 33.95345128 22.13067134 31 30 C27.42891537 36.57457966 23.41165189 42.95787163 17 47 C13.625 47.8125 13.625 47.8125 11 48 C12.12652046 56.36970344 12.12652046 56.36970344 17 63 C21.80869583 65.63117319 25.54303738 66.58467457 31 66 C37.06783458 64.04595158 40.13834396 61.58010777 43.06640625 55.94921875 C44.40376904 51.7244953 44.46722984 47.59520389 44.625 43.1875 C44.66367188 42.30384766 44.70234375 41.42019531 44.7421875 40.50976562 C44.83600784 38.34017028 44.91907326 36.17011453 45 34 C45.99 34 46.98 34 48 34 C48.98770899 55.07619023 48.98770899 55.07619023 44.4921875 61.375 C39.42012632 66.89850118 34.80070751 69.99581773 27.1875 70.4375 C20.01609304 70.26700593 15.46394936 66.70686128 10.5 61.8125 C7.41921765 58.04894967 7.49384602 54.65784103 7.7890625 49.94140625 C7.85867187 49.30074219 7.92828125 48.66007812 8 48 C7.01 47.979375 6.02 47.95875 5 47.9375 C-1.1782572 47.01388175 -5.15331125 42.48720693 -8.734375 37.6640625 C-14.90883079 27.97444623 -17.7886541 17.53470635 -16 6 C-13.71260343 2.42594286 -12.54088442 1.21635377 -8.5625 -0.375 C-5.21377007 -0.96249648 -3.2137097 -0.97385142 0 0 Z " fill="#189FE3" transform="translate(21,9)"/>
<path d="M0 0 C1.25 6.625 1.25 6.625 -1 10 C-3.475 9.505 -3.475 9.505 -6 9 C-6 8.67 -6 8.34 -6 8 C-4.35 8 -2.7 8 -1 8 C-1.33 6.68 -1.66 5.36 -2 4 C-3.32 3.67 -4.64 3.34 -6 3 C-6.33 4.32 -6.66 5.64 -7 7 C-7 6.01 -7 5.02 -7 4 C-12.31411494 5.92391649 -12.31411494 5.92391649 -16 10 C-17.37648884 23.74701189 -14.24916632 34.04821603 -6 45 C-2.26650602 49.19663627 1.62355376 50.81718183 7 52 C6.99097656 52.6290625 6.98195313 53.258125 6.97265625 53.90625 C7.19441771 60.30840693 8.57764929 63.82236619 13.1171875 68.37109375 C17.97627588 72.57491088 22.17467145 73.56010125 28.46875 73.3515625 C33.77392069 72.61473324 37.60691665 70.43073425 41.3125 66.625 C45.50297852 60.10647786 46.49705876 55.25353203 46.6875 47.625 C46.72166016 46.69816406 46.75582031 45.77132812 46.79101562 44.81640625 C46.87299552 42.54439188 46.94230494 40.27273896 47 38 C46.01 38 45.02 38 44 38 C44.04640625 39.27875 44.0928125 40.5575 44.140625 41.875 C44.17817027 43.58330979 44.21456745 45.29164508 44.25 47 C44.30027344 48.25876953 44.30027344 48.25876953 44.3515625 49.54296875 C44.45453056 56.18440847 43.16638861 61.58433569 38.55175781 66.56225586 C34.52460323 70.13131844 31.86942391 70.8589114 26.6875 71.25 C21.91564455 70.92648438 18.04826363 69.93212497 14.484375 66.5703125 C10.28823094 61.72304263 9.88192623 58.25790988 10 52 C10.87011719 51.70609375 10.87011719 51.70609375 11.7578125 51.40625 C18.29230983 48.90459426 21.28339102 45.81432693 25 40 C25.721875 39.0925 26.44375 38.185 27.1875 37.25 C31.6693384 29.2136001 33.59573532 19.11698539 31.25 10.125 C29.17016586 6.58928197 26.83591605 5.27863868 23 4 C23 4.99 23 5.98 23 7 C23.78375 7.28875 24.5675 7.5775 25.375 7.875 C28 9 28 9 30 11 C31.7725149 23.22012676 27.90044383 32.80371628 20.875 42.625 C18.1003403 46.21481397 15.33705526 48.55431491 11 50 C6.94875548 50.38219288 4.5902098 50.30112745 0.9375 48.4375 C-7.44325615 41.48325553 -11.90950543 32.77574521 -14 22 C-14.13968112 20.14922512 -14.21970137 18.29329106 -14.25 16.4375 C-14.27578125 15.48746094 -14.3015625 14.53742187 -14.328125 13.55859375 C-13.95193763 10.62522798 -13.28811367 9.78834148 -11 8 C-10.34 8.33 -9.68 8.66 -9 9 C-9.66 9.66 -10.32 10.32 -11 11 C-12.52458706 22.22650471 -9.34873637 31.90420223 -2.81640625 40.90625 C-0.43035851 43.65661901 1.5043663 45.69815393 5.1484375 46.43359375 C10.60577368 46.44316802 13.85459048 45.86904889 18 42 C20.30150431 38.80722686 22.19872395 35.49628213 24 32 C24.34417969 31.33742188 24.68835937 30.67484375 25.04296875 29.9921875 C27.57912642 24.30071629 27.72698254 18.13686559 27 12 C26.34 11.34 25.68 10.68 25 10 C23.68 10 22.36 10 21 10 C19.68 10 18.36 10 17 10 C15 8 15 8 14.75 5 C15 2 15 2 17 0 C22.64362903 -0.61139315 26.52287782 1.81015165 31 5 C34.02024219 7.74821114 35.70943231 10.29890953 36.40234375 14.35546875 C36.60329548 19.54002347 35.68085697 23.96519048 33.8359375 28.7890625 C32.9661015 30.97577186 32.9661015 30.97577186 32.4140625 33.2109375 C29.92397263 42.42750391 23.87293265 49.51563652 15.6640625 54.2578125 C14 55 14 55 12 55 C13.75474646 60.5413046 14.8848775 63.80304843 20 67 C24.37595337 68.45865112 28.59102038 68.83479492 32.97265625 67.31640625 C37.50534412 64.99713284 39.23703566 62.66667031 41 58 C41.44497454 54.44963264 41.46465409 50.94946599 41.4375 47.375 C41.45748047 46.43398438 41.47746094 45.49296875 41.49804688 44.5234375 C41.61415282 39.13700511 41.61415282 39.13700511 39.04296875 34.62109375 C38.36878906 34.08613281 37.69460937 33.55117188 37 33 C35.82113137 29.96300986 35.59911034 27.22878697 36 24 C37.47597752 20.95926436 39.22384622 18.92655499 42 17 C46.4635251 16.12323614 48.37605713 16.66491957 52.375 18.8125 C55.87904894 21.73254079 55.93863905 23.3659368 56.375 27.875 C56.5234375 29.8671875 56.5234375 29.8671875 56 32 C55.175 32.6909375 54.35 33.381875 53.5 34.09375 C49.80745338 38.38633544 50.50746643 42.15580152 50.625 47.625 C50.51364955 56.65028617 49.75789609 63.38396815 43 70 C40.45736192 72.01673272 37.92946193 73.61271458 35 75 C34.01 75.495 34.01 75.495 33 76 C25.11957561 76.82676431 18.32772567 77.02420244 11.90625 71.98046875 C7.9412995 67.86114518 4.503911 62.98076166 3.5390625 57.2734375 C3.36117188 56.52320313 3.18328125 55.77296875 3 55 C1.3371861 54.30161816 -0.33118982 53.61298376 -2.02734375 53 C-5.931292 51.02096881 -8.37651636 47.41052873 -11 44 C-12.0828125 42.6078125 -12.0828125 42.6078125 -13.1875 41.1875 C-18.86374758 31.20513356 -20.68300999 21.34055056 -19 10 C-16.66451998 5.20858541 -13.65950339 2.81281799 -8.9375 0.5 C-5.89423447 -0.01800264 -3.08116797 -0.14672228 0 0 Z " fill="#172C49" transform="translate(22,5)"/>
<path d="M0 0 C13.53 0 27.06 0 41 0 C41.495 2.475 41.495 2.475 42 5 C41.195625 5.33 40.39125 5.66 39.5625 6 C36.85797628 7.67095639 36.85797628 7.67095639 36.5859375 9.91015625 C36.53695312 10.62042969 36.48796875 11.33070312 36.4375 12.0625 C36 16 36 16 34.3125 17.5625 C31.32684055 18.12735449 28.9431585 17.66889966 26 17 C24.66666667 13 23.33333333 9 22 5 C12.26946376 6.49771649 12.26946376 6.49771649 4.93359375 12.46484375 C1.96079203 20.53743085 2.97371575 30.47360939 6 38.375 C10.50569052 47.68162572 15.99017152 56.38533971 26 60 C26 61.32 26 62.64 26 64 C13.13 63.505 13.13 63.505 0 63 C0 42.21 0 21.42 0 0 Z " fill="#35CCF5" transform="translate(0,0)"/>
<path d="M0 0 C3.7125 -0.04125 7.425 -0.0825 11.25 -0.125 C12.99651855 -0.15231201 12.99651855 -0.15231201 14.77832031 -0.18017578 C15.70225586 -0.1851709 16.62619141 -0.19016602 17.578125 -0.1953125 C18.52075195 -0.20578613 19.46337891 -0.21625977 20.43457031 -0.22705078 C23.14308653 0.01266373 24.7245059 0.53623001 27 2 C28.421875 4.20703125 28.421875 4.20703125 29.75 6.8125 C32.31420584 11.38347562 34.60677121 13.53371048 39.36328125 15.671875 C41 17 41 17 42 23 C28.14 23 14.28 23 0 23 C0 15.41 0 7.82 0 0 Z " fill="#2381FA" transform="translate(0,63)"/>
<path d="M0 0 C2.7586336 2.7586336 2.32217792 4.93919983 2.4609375 8.7109375 C2.79644035 11.17195384 2.79644035 11.17195384 5.00390625 12.6484375 C8.21226559 16.42814851 7.61888406 20.4540382 7.5625 25.25 C7.58634766 26.16652344 7.61019531 27.08304688 7.63476562 28.02734375 C7.62086531 34.52342635 6.27853396 39.02748225 2 44 C-2.45017167 47.16456652 -6.68860429 47.79511912 -12 47 C-16.57922171 45.1855914 -19.61880699 43.25352543 -22.1875 39.0625 C-23 37 -23 37 -23 33 C-22.443125 32.75507812 -21.88625 32.51015625 -21.3125 32.2578125 C-10.73713842 27.07731443 -5.80377892 18.81661861 -1.91015625 7.98046875 C-1.0993893 5.32546798 -0.47972185 2.73188969 0 0 Z " fill="#1D97F6" transform="translate(57,27)"/>
<path d="M0 0 C0 0.99 0 1.98 0 3 C-0.825 3.495 -1.65 3.99 -2.5 4.5 C-5.3388884 7.3388884 -5.45374222 7.95919992 -5.625 11.8125 C-5.12620908 22.14855637 -1.45367509 33.60336834 6 41 C9.3301622 43.8341806 11.1611942 44.89514928 15.5 45.4375 C21.50235026 44.68720622 24.72389566 42.63897861 28.5625 38.0625 C34.91415584 29.31132974 37.92125119 20.82689084 37.57421875 9.94921875 C37.24735459 7.03701297 37.24735459 7.03701297 35.64453125 5.33203125 C33.8315981 4.15419342 33.8315981 4.15419342 31 3 C31 2.01 31 1.02 31 0 C35.29942535 0.47771393 37.2935135 1.61689187 40 5 C42.57924514 13.19589081 40.95345128 22.13067134 38 30 C34.42891537 36.57457966 30.41165189 42.95787163 24 47 C20.625 47.8125 20.625 47.8125 18 48 C19.12652046 56.36970344 19.12652046 56.36970344 24 63 C28.80869583 65.63117319 32.54303738 66.58467457 38 66 C44.06783458 64.04595158 47.13834396 61.58010777 50.06640625 55.94921875 C51.40376904 51.7244953 51.46722984 47.59520389 51.625 43.1875 C51.66367188 42.30384766 51.70234375 41.42019531 51.7421875 40.50976562 C51.83600784 38.34017028 51.91907326 36.17011453 52 34 C52.99 34 53.98 34 55 34 C55.98770899 55.07619023 55.98770899 55.07619023 51.4921875 61.375 C46.42012632 66.89850118 41.80070751 69.99581773 34.1875 70.4375 C27.01609304 70.26700593 22.46394936 66.70686128 17.5 61.8125 C14.41921765 58.04894967 14.49384602 54.65784103 14.7890625 49.94140625 C14.85867187 49.30074219 14.92828125 48.66007812 15 48 C14.01 47.979375 13.02 47.95875 12 47.9375 C5.8217428 47.01388175 1.84668875 42.48720693 -1.734375 37.6640625 C-7.90883079 27.97444623 -10.7886541 17.53470635 -9 6 C-6.35495617 2.0297186 -4.88992518 0 0 0 Z " fill="#DCDFE1" transform="translate(14,9)"/>
<path d="M0 0 C5.77995927 0.55249611 11.03949947 4.01791985 14.71875 8.44140625 C17.48290118 12.85065779 17.37512847 17.22175699 16.65625 22.25390625 C16.07033565 24.59363135 15.35365207 26.79051553 14.4921875 29.04296875 C13.6223515 31.22967811 13.6223515 31.22967811 13.0703125 33.46484375 C10.58022263 42.68141016 4.52918265 49.76954277 -3.6796875 54.51171875 C-5.34375 55.25390625 -5.34375 55.25390625 -7.34375 55.25390625 C-5.58900354 60.79521085 -4.4588725 64.05695468 0.65625 67.25390625 C5.03220337 68.71255737 9.24727038 69.08870117 13.62890625 67.5703125 C18.03673348 65.31492744 19.89922772 62.80149332 21.65625 58.25390625 C22.31625 58.25390625 22.97625 58.25390625 23.65625 58.25390625 C22.41801234 64.03234865 19.49614536 67.11920609 14.65625 70.25390625 C9.63156151 71.8769681 5.06241036 71.69030085 0.03125 70.12890625 C-4.71299521 67.49321447 -7.58806493 64.52096145 -9.34375 59.25390625 C-9.38329234 56.920908 -9.38776732 54.58682436 -9.34375 52.25390625 C-8.47363281 51.96 -8.47363281 51.96 -7.5859375 51.66015625 C-1.05144017 49.15850051 1.93964102 46.06823318 5.65625 40.25390625 C6.378125 39.34640625 7.1 38.43890625 7.84375 37.50390625 C12.3255884 29.46750635 14.25198532 19.37089164 11.90625 10.37890625 C9.82641586 6.84318822 7.49216605 5.53254493 3.65625 4.25390625 C3.65625 5.24390625 3.65625 6.23390625 3.65625 7.25390625 C4.44 7.54265625 5.22375 7.83140625 6.03125 8.12890625 C8.65625 9.25390625 8.65625 9.25390625 10.65625 11.25390625 C12.4287649 23.47403301 8.55669383 33.05762253 1.53125 42.87890625 C-1.2434097 46.46872022 -4.00669474 48.80822116 -8.34375 50.25390625 C-12.39499452 50.63609913 -14.7535402 50.5550337 -18.40625 48.69140625 C-26.78700615 41.73716178 -31.25325543 33.02965146 -33.34375 22.25390625 C-33.48343112 20.40313137 -33.56345137 18.54719731 -33.59375 16.69140625 C-33.61953125 15.74136719 -33.6453125 14.79132812 -33.671875 13.8125 C-33.29568763 10.87913423 -32.63186367 10.04224773 -30.34375 8.25390625 C-29.68375 8.58390625 -29.02375 8.91390625 -28.34375 9.25390625 C-29.00375 9.91390625 -29.66375 10.57390625 -30.34375 11.25390625 C-31.86833706 22.48041096 -28.69248637 32.15810848 -22.16015625 41.16015625 C-19.77410851 43.91052526 -17.8393837 45.95206018 -14.1953125 46.6875 C-8.73797632 46.69707427 -5.48915952 46.12295514 -1.34375 42.25390625 C0.95775431 39.06113311 2.85497395 35.75018838 4.65625 32.25390625 C5.00042969 31.59132813 5.34460937 30.92875 5.69921875 30.24609375 C8.23537642 24.55462254 8.38323254 18.39077184 7.65625 12.25390625 C6.99625 11.59390625 6.33625 10.93390625 5.65625 10.25390625 C4.33625 10.25390625 3.01625 10.25390625 1.65625 10.25390625 C0.33625 10.25390625 -0.98375 10.25390625 -2.34375 10.25390625 C-4.34375 8.25390625 -4.34375 8.25390625 -4.59375 5.25390625 C-4.28967648 1.60502399 -3.74428011 0.40563035 0 0 Z " fill="#294E69" transform="translate(41.34375,4.74609375)"/>
<path d="M0 0 C2.536875 -0.061875 5.07375 -0.12375 7.6875 -0.1875 C8.47729248 -0.21481201 9.26708496 -0.24212402 10.08081055 -0.27026367 C14.62037592 -0.32364331 17.48581889 0.08101353 21 3 C23.83478427 6.6641753 24.41012197 9.41072985 24.375 14 C24.38273437 15.010625 24.39046875 16.02125 24.3984375 17.0625 C23.74693101 21.86576356 21.96048081 24.18150331 18.3046875 27.296875 C14.43192456 29.29276701 11.35753023 29.4615797 7.125 29.25 C4.77375 29.1675 2.4225 29.085 0 29 C0 19.43 0 9.86 0 0 Z M9 7 C9 11.95 9 16.9 9 22 C14.19246598 20.59252526 14.19246598 20.59252526 15.5 16.6875 C16.29513935 13.06768406 16.29513935 13.06768406 14.875 10.125 C13.00356593 7.5992787 13.00356593 7.5992787 9 7 Z " fill="#EDF1F8" transform="translate(223,26)"/>
<path d="M0 0 C1.04671875 -0.02578125 2.0934375 -0.0515625 3.171875 -0.078125 C6.66554319 0.29429648 8.49744719 1.08763419 11.25 3.25 C12.1875 6.75 12.1875 6.75 12.25 10.25 C11.26 11.735 11.26 11.735 10.25 13.25 C9.59 13.25 8.93 13.25 8.25 13.25 C8.25 13.91 8.25 14.57 8.25 15.25 C9.054375 15.559375 9.85875 15.86875 10.6875 16.1875 C13.25 17.25 13.25 17.25 14.25 18.25 C14.83988764 24.50280899 14.83988764 24.50280899 12.375 27.625 C8.49494725 30.59209916 5.34254499 30.36907572 0.625 30.3125 C-0.08140625 30.30798828 -0.7878125 30.30347656 -1.515625 30.29882812 C-3.26045275 30.28703875 -5.005237 30.26910324 -6.75 30.25 C-6.77465746 26.1382744 -6.79283959 22.02657722 -6.80493164 17.91479492 C-6.8099708 16.51504772 -6.81680216 15.1153058 -6.82543945 13.71557617 C-6.8375232 11.70754223 -6.84269807 9.69947043 -6.84765625 7.69140625 C-6.85289307 6.48170166 -6.85812988 5.27199707 -6.86352539 4.02563477 C-6.66288223 -0.87998273 -4.38459733 0.06416484 0 0 Z M2.25 20.25 C2.25 21.24 2.25 22.23 2.25 23.25 C3.24 22.92 4.23 22.59 5.25 22.25 C4.26 21.59 3.27 20.93 2.25 20.25 Z " fill="#EBEFF8" transform="translate(94.75,24.75)"/>
<path d="M0 0 C2.89684158 -0.10829314 5.78961019 -0.18743954 8.6875 -0.25 C9.50412109 -0.28351562 10.32074219 -0.31703125 11.16210938 -0.3515625 C15.30292007 -0.41862016 17.4274885 -0.35846774 21.01953125 1.890625 C24.23699515 5.31750963 24.47173723 7.92609663 24.3984375 12.5 C23.18275386 20.12781892 16.63882641 25.64622569 11.24609375 30.6640625 C9 32 9 32 6.578125 32.046875 C3.086591 30.62910059 0.84908578 28.31688695 -1.6875 25.625 C-2.17283203 25.13 -2.65816406 24.635 -3.15820312 24.125 C-9 18.09787716 -9 18.09787716 -9 14 C-5.7 14 -2.4 14 1 14 C1.99 11.03 2.98 8.06 4 5 C4.99 5.33 5.98 5.66 7 6 C7.66 9.63 8.32 13.26 9 17 C9.33 15.02 9.66 13.04 10 11 C10.99 11 11.98 11 13 11 C13 11.99 13 12.98 13 14 C15.97 14 18.94 14 22 14 C21.896875 12.741875 21.79375 11.48375 21.6875 10.1875 C21.62949219 9.47980469 21.57148437 8.77210937 21.51171875 8.04296875 C20.87090521 5.4846063 20.13397084 4.53933627 18 3 C15.82066669 2.60096561 15.82066669 2.60096561 13.5 2.75 C12.7265625 2.76546875 11.953125 2.7809375 11.15625 2.796875 C8.8177193 2.93528295 8.8177193 2.93528295 6 4 C2.8125 2.5625 2.8125 2.5625 0 1 C0 0.67 0 0.34 0 0 Z " fill="#193853" transform="translate(23,17)"/>
<path d="M0 0 C0.33 0 0.66 0 1 0 C1.01417969 0.94359375 1.02835937 1.8871875 1.04296875 2.859375 C1.56054163 16.79187747 5.75953855 27.28988265 15 38 C17.84575558 40.37950184 20.50937932 41.73949809 24 43 C24 44.32 24 45.64 24 47 C11.13 46.505 11.13 46.505 -2 46 C-2 34.45 -2 22.9 -2 11 C-1.34 11 -0.68 11 0 11 C0 7.37 0 3.74 0 0 Z " fill="#3AACF3" transform="translate(2,17)"/>
<path d="M0 0 C3.86134614 0.04843983 6.16579789 0.80078068 9.25 3.25 C12.19714742 7.67072113 11.62447004 11.3402028 10.625 16.4375 C8.80227496 20.16580121 6.93828897 21.40585551 3.25 23.25 C-0.85614613 23.93435769 -2.40972593 23.44260796 -6.0625 21.375 C-8.75 19.25 -8.75 19.25 -9.75 17.25 C-10.37165748 11.73501005 -10.81404786 7.61416392 -7.3125 3.125 C-6.466875 2.50625 -5.62125 1.8875 -4.75 1.25 C-3.75 0.25 -3.75 0.25 0 0 Z M0.25 7.25 C-2.08391203 10.03114056 -2.08391203 10.03114056 -1.375 12.9375 C-1.16875 13.700625 -0.9625 14.46375 -0.75 15.25 C0.24 14.92 1.23 14.59 2.25 14.25 C2.25 12.27 2.25 10.29 2.25 8.25 C1.59 7.92 0.93 7.59 0.25 7.25 Z " fill="#EBF0F8" transform="translate(264.75,32.75)"/>
<path d="M0 0 C3.86134614 0.04843983 6.16579789 0.80078068 9.25 3.25 C12.19714742 7.67072113 11.62447004 11.3402028 10.625 16.4375 C8.80227496 20.16580121 6.93828897 21.40585551 3.25 23.25 C-0.85614613 23.93435769 -2.40972593 23.44260796 -6.0625 21.375 C-8.75 19.25 -8.75 19.25 -9.75 17.25 C-10.37165748 11.73501005 -10.81404786 7.61416392 -7.3125 3.125 C-6.466875 2.50625 -5.62125 1.8875 -4.75 1.25 C-3.75 0.25 -3.75 0.25 0 0 Z M0.25 7.25 C-2.08391203 10.03114056 -2.08391203 10.03114056 -1.375 12.9375 C-1.16875 13.700625 -0.9625 14.46375 -0.75 15.25 C0.24 14.92 1.23 14.59 2.25 14.25 C2.25 12.27 2.25 10.29 2.25 8.25 C1.59 7.92 0.93 7.59 0.25 7.25 Z " fill="#EBF0F8" transform="translate(153.75,32.75)"/>
<path d="M0 0 C3.86134614 0.04843983 6.16579789 0.80078068 9.25 3.25 C12.19714742 7.67072113 11.62447004 11.3402028 10.625 16.4375 C8.80227496 20.16580121 6.93828897 21.40585551 3.25 23.25 C-0.85614613 23.93435769 -2.40972593 23.44260796 -6.0625 21.375 C-8.75 19.25 -8.75 19.25 -9.75 17.25 C-10.37165748 11.73501005 -10.81404786 7.61416392 -7.3125 3.125 C-6.466875 2.50625 -5.62125 1.8875 -4.75 1.25 C-3.75 0.25 -3.75 0.25 0 0 Z M0.25 7.25 C-2.08391203 10.03114056 -2.08391203 10.03114056 -1.375 12.9375 C-1.16875 13.700625 -0.9625 14.46375 -0.75 15.25 C0.24 14.92 1.23 14.59 2.25 14.25 C2.25 12.27 2.25 10.29 2.25 8.25 C1.59 7.92 0.93 7.59 0.25 7.25 Z " fill="#EBF0F8" transform="translate(125.75,32.75)"/>
<path d="M0 0 C0.66 0 1.32 0 2 0 C2.28571429 7.42857143 2.28571429 7.42857143 0 11 C-0.66 11 -1.32 11 -2 11 C-2.103125 11.639375 -2.20625 12.27875 -2.3125 12.9375 C-2.539375 13.618125 -2.76625 14.29875 -3 15 C-3.99 15.33 -4.98 15.66 -6 16 C-6.1546875 17.11375 -6.1546875 17.11375 -6.3125 18.25 C-7.08657898 21.34631592 -7.70520757 22.78170065 -10 25 C-13.6875 26.25 -13.6875 26.25 -17 27 C-14.6132527 28.19337365 -12.71678465 28.31694944 -10.0625 28.5625 C-9.18722656 28.64628906 -8.31195313 28.73007812 -7.41015625 28.81640625 C-4.90430084 29.03797749 -4.90430084 29.03797749 -2 29 C1.33333333 29 4.66666667 29 8 29 C7.42115678 32.11128232 6.72720741 34.32672424 4.3671875 36.51171875 C-0.57605043 39.89444432 -4.06584383 40.76569757 -10 40 C-14.57922171 38.1855914 -17.61880699 36.25352543 -20.1875 32.0625 C-21 30 -21 30 -21 26 C-20.1646875 25.63261719 -20.1646875 25.63261719 -19.3125 25.2578125 C-10.34217819 20.86356702 -4.93162986 14.21866587 -1.5 4.875 C-0.97987329 3.2563298 -0.4719958 1.6333539 0 0 Z " fill="#1F7DF6" transform="translate(55,34)"/>
<path d="M0 0 C0.53625 0.12375 1.0725 0.2475 1.625 0.375 C1.955 0.045 2.285 -0.285 2.625 -0.625 C6.86584775 -1.14972964 10.45036325 -1.31259225 14.1875 0.875 C16.28242367 4.51834551 15.90269546 7.20956807 15.625 11.375 C12.655 11.375 9.685 11.375 6.625 11.375 C6.625 10.385 6.625 9.395 6.625 8.375 C5.635 8.375 4.645 8.375 3.625 8.375 C3.625 10.355 3.625 12.335 3.625 14.375 C2.965 14.705 2.305 15.035 1.625 15.375 C0.965 11.415 0.305 7.455 -0.375 3.375 C-1.035 3.375 -1.695 3.375 -2.375 3.375 C-3.365 6.015 -4.355 8.655 -5.375 11.375 C-6.85406892 11.40189216 -8.33327483 11.42134621 -9.8125 11.4375 C-11.04806641 11.45490234 -11.04806641 11.45490234 -12.30859375 11.47265625 C-14.375 11.375 -14.375 11.375 -15.375 10.375 C-15.8125 7.125 -15.8125 7.125 -15.375 3.375 C-10.34793807 -2.5103408 -6.95892094 -1.83129499 0 0 Z " fill="#E9ECEE" transform="translate(29.375,19.625)"/>
<path d="M0 0 C0 12.21 0 24.42 0 37 C-3.63 37 -7.26 37 -11 37 C-10.96697736 33.26844194 -10.89977276 29.54285095 -10.8125 25.8125 C-10.80379883 24.22985352 -10.80379883 24.22985352 -10.79492188 22.61523438 C-10.56949079 14.67505061 -10.56949079 14.67505061 -7.4921875 11.02734375 C-6.66976562 10.35832031 -5.84734375 9.68929687 -5 9 C-4.27801436 6.85113797 -4.27801436 6.85113797 -4.3125 4.75 C-4.1578125 2.89375 -4.1578125 2.89375 -4 1 C-2 0 -2 0 0 0 Z " fill="#1D8FF6" transform="translate(82,28)"/>
<path d="M0 0 C1.15628906 -0.03867187 1.15628906 -0.03867187 2.3359375 -0.078125 C5.46284393 0.3701005 6.58482349 0.78055559 8.625 3.25 C9.12354413 6.49014675 8.99932051 9.66930506 8.875 12.9375 C8.85695312 13.83017578 8.83890625 14.72285156 8.8203125 15.64257812 C8.77317759 17.84613504 8.70740657 20.04752601 8.625 22.25 C7.635 22.25 6.645 22.25 5.625 22.25 C5.625 21.59 5.625 20.93 5.625 20.25 C5.13 20.58 4.635 20.91 4.125 21.25 C0.45493959 22.71802416 -2.4259118 22.50477988 -6.375 22.25 C-8.375 20.25 -8.375 20.25 -8.8125 16.8125 C-8.375 13.25 -8.375 13.25 -6.375 11.3125 C-2.47646489 9.93176881 0.50222948 10.0403676 4.625 10.25 C4.625 8.27 4.625 6.29 4.625 4.25 C3.18760487 4.22287934 1.75006137 4.20354933 0.3125 4.1875 C-0.48800781 4.17589844 -1.28851563 4.16429687 -2.11328125 4.15234375 C-4.54361334 4.15342145 -4.54361334 4.15342145 -7.375 5.25 C-7 3.3125 -7 3.3125 -6.375 1.25 C-4.06222219 0.09361109 -2.57408779 0.05131072 0 0 Z " fill="#EDF1F8" transform="translate(204.375,32.75)"/>
<path d="M0 0 C9 0 9 0 12 2 C14.49272405 5.73908608 15.28858549 8.52692498 15 13 C13.83265341 16.95600787 12.88247692 19.24008932 9.75 21.9375 C7 23 7 23 0 23 C0 15.41 0 7.82 0 0 Z M4 4 C4 8.95 4 13.9 4 19 C9.19246598 17.59252526 9.19246598 17.59252526 10.5 13.6875 C11.29513935 10.06768406 11.29513935 10.06768406 9.875 7.125 C8.00356593 4.5992787 8.00356593 4.5992787 4 4 Z " fill="#4573C4" transform="translate(228,29)"/>
<path d="M0 0 C0.33 0 0.66 0 1 0 C1.66 1.98 2.32 3.96 3 6 C4.258125 5.938125 5.51625 5.87625 6.8125 5.8125 C9.38014568 5.68622234 10.58333817 5.71783623 12.73046875 7.171875 C15.50617391 11.16889043 14.57330345 16.38652977 14 21 C11.54862259 29.5169651 7.4222895 37.52534396 0.375 43.0625 C-2 44 -2 44 -4.25 43.8125 C-6 43 -6 43 -7 41 C-6.01 40.525625 -5.02 40.05125 -4 39.5625 C1.90467519 36.2072976 7.46181682 30.35790003 10 24 C10.79822793 19.30305882 10.67106579 16.00659869 8 12 C4.13303207 9.42202138 1.60354748 9.23407869 -3 9 C-2.01 8.67 -1.02 8.34 0 8 C0 5.36 0 2.72 0 0 Z " fill="#1E9AE6" transform="translate(36,8)"/>
<path d="M0 0 C0.66 0.33 1.32 0.66 2 1 C-0.15514135 10.29404706 -5.30077216 17.91866729 -13.375 23.125 C-16.62068966 25 -16.62068966 25 -19 25 C-17.24525354 30.5413046 -16.1151225 33.80304843 -11 37 C-6.62404663 38.45865112 -2.40897962 38.83479492 1.97265625 37.31640625 C6.38048348 35.06102119 8.24297772 32.54758707 10 28 C10.66 28 11.32 28 12 28 C10.76176234 33.7784424 7.83989536 36.86529984 3 40 C-2.02468849 41.62306185 -6.59383964 41.4363946 -11.625 39.875 C-16.36924521 37.23930822 -19.24431493 34.2670552 -21 29 C-21.03954234 26.66700175 -21.04401732 24.33291811 -21 22 C-20.12988281 21.70609375 -20.12988281 21.70609375 -19.2421875 21.40625 C-12.71929286 18.90903621 -9.61995691 15.88367653 -6 10 C-5.43925781 9.09507813 -4.87851562 8.19015625 -4.30078125 7.2578125 C-2.83971225 4.8533493 -1.40768529 2.4359944 0 0 Z " fill="#223853" transform="translate(53,35)"/>
<path d="M0 0 C2.375 1.5625 2.375 1.5625 4 4 C4.56783945 7.97487617 4.62340519 10.06489221 2.375 13.4375 C-0.71685231 15.47161336 -2.36367425 15.60605429 -6 15 C-8.375 13.4375 -8.375 13.4375 -10 11 C-10.56783945 7.02512383 -10.62340519 4.93510779 -8.375 1.5625 C-5.28314769 -0.47161336 -3.63632575 -0.60605429 0 0 Z " fill="#DEE2E5" transform="translate(71,25)"/>
<path d="M0 0 C1.051875 -0.02126953 1.051875 -0.02126953 2.125 -0.04296875 C4 0.1875 4 0.1875 6 2.1875 C6 3.1775 6 4.1675 6 5.1875 C3.98177083 4.86197917 1.96354167 4.53645833 -0.0546875 4.2109375 C-0.69664062 4.20320313 -1.33859375 4.19546875 -2 4.1875 C-4.22713126 5.99230016 -4.22713126 5.99230016 -4.23046875 8.5 C-4.21628906 9.386875 -4.20210938 10.27375 -4.1875 11.1875 C-4.18105469 12.074375 -4.17460937 12.96125 -4.16796875 13.875 C-4.14581927 16.21356345 -4.14581927 16.21356345 -3 18.1875 C-0.03 18.1875 2.94 18.1875 6 18.1875 C6 19.1775 6 20.1675 6 21.1875 C2.55258453 22.91120774 -1.23035339 22.69056672 -5 22.1875 C-7.50160818 20.31129387 -8.61945652 18.94858697 -10 16.1875 C-10.58816159 11.36650335 -10.44590263 8.01985157 -8.125 3.6875 C-5.40110708 0.4829201 -4.04954591 0.03722009 0 0 Z " fill="#E8EDF7" transform="translate(292,32.8125)"/>
<path d="M0 0 C0.66 0 1.32 0 2 0 C2.33 3.63 2.66 7.26 3 11 C3.99 11.33 4.98 11.66 6 12 C6.33 9.36 6.66 6.72 7 4 C9.64 4 12.28 4 15 4 C13.49650623 7.66786393 11.36271208 9.68910393 8.375 12.25 C7.14910156 13.30960938 7.14910156 13.30960938 5.8984375 14.390625 C4.95871094 15.18726563 4.95871094 15.18726563 4 16 C0.2626783 14.71991907 -2.00404576 13.32598221 -4.6875 10.4375 C-7.06925544 7.8534832 -7.06925544 7.8534832 -10 6 C-10 5.34 -10 4.68 -10 4 C-7.03 4 -4.06 4 -1 4 C-0.67 2.68 -0.34 1.36 0 0 Z " fill="#E6EAED" transform="translate(27,30)"/>
<path d="M0 0 C0.66 0.33 1.32 0.66 2 1 C1.34 1.66 0.68 2.32 0 3 C-1.52458706 14.22650471 1.65126363 23.90420223 8.18359375 32.90625 C10.56964149 35.65661901 12.5043663 37.69815393 16.1484375 38.43359375 C22.62075906 38.4449487 26.08666705 36.71911075 30.875 32.25 C31.24625 31.8375 31.6175 31.425 32 31 C31.77581061 34.92331434 31.04047908 35.96128088 28.125 38.75 C23.63441225 41.98322318 20.47267996 42.46378644 15 42 C4.96509032 36.88014812 1.36863792 28.26696418 -2 18 C-2.9769364 14.78041086 -3.19507156 11.80186677 -3.25 8.4375 C-3.27578125 7.48746094 -3.3015625 6.53742187 -3.328125 5.55859375 C-2.95193763 2.62522798 -2.28811367 1.78834148 0 0 Z " fill="#1D4160" transform="translate(11,13)"/>
<path d="M0 0 C6.75 0.75 6.75 0.75 9 3 C9.265625 5.27734375 9.265625 5.27734375 9.25 7.9375 C9.25515625 8.81277344 9.2603125 9.68804687 9.265625 10.58984375 C9 13 9 13 7 16 C3.5625 16.4375 3.5625 16.4375 0 16 C-2.28677385 14.22959444 -2.86400707 12.93471195 -3.27734375 10.09375 C-3.44086251 6.58790771 -3.33401538 4.5566923 -1.5 1.5 C-1.005 1.005 -0.51 0.51 0 0 Z M3 4 C0.66608797 6.78114056 0.66608797 6.78114056 1.375 9.6875 C1.58125 10.450625 1.7875 11.21375 2 12 C2.99 11.67 3.98 11.34 5 11 C5 9.02 5 7.04 5 5 C4.34 4.67 3.68 4.34 3 4 Z " fill="#4775C5" transform="translate(262,36)"/>
<path d="M0 0 C6.75 0.75 6.75 0.75 9 3 C9.265625 5.27734375 9.265625 5.27734375 9.25 7.9375 C9.25515625 8.81277344 9.2603125 9.68804687 9.265625 10.58984375 C9 13 9 13 7 16 C3.5625 16.4375 3.5625 16.4375 0 16 C-2.28677385 14.22959444 -2.86400707 12.93471195 -3.27734375 10.09375 C-3.44086251 6.58790771 -3.33401538 4.5566923 -1.5 1.5 C-1.005 1.005 -0.51 0.51 0 0 Z M3 4 C0.66608797 6.78114056 0.66608797 6.78114056 1.375 9.6875 C1.58125 10.450625 1.7875 11.21375 2 12 C2.99 11.67 3.98 11.34 5 11 C5 9.02 5 7.04 5 5 C4.34 4.67 3.68 4.34 3 4 Z " fill="#4775C5" transform="translate(151,36)"/>
<path d="M0 0 C6.75 0.75 6.75 0.75 9 3 C9.265625 5.27734375 9.265625 5.27734375 9.25 7.9375 C9.25515625 8.81277344 9.2603125 9.68804687 9.265625 10.58984375 C9 13 9 13 7 16 C3.5625 16.4375 3.5625 16.4375 0 16 C-2.28677385 14.22959444 -2.86400707 12.93471195 -3.27734375 10.09375 C-3.44086251 6.58790771 -3.33401538 4.5566923 -1.5 1.5 C-1.005 1.005 -0.51 0.51 0 0 Z M3 4 C0.66608797 6.78114056 0.66608797 6.78114056 1.375 9.6875 C1.58125 10.450625 1.7875 11.21375 2 12 C2.99 11.67 3.98 11.34 5 11 C5 9.02 5 7.04 5 5 C4.34 4.67 3.68 4.34 3 4 Z " fill="#4775C5" transform="translate(123,36)"/>
<path d="M0 0 C4.04578966 0.79470868 6.34300299 2.05666916 9.5 4.6875 C10.71468687 8.33156062 11.42134277 11.93337199 10.5 15.6875 C9.68402344 16.36425781 8.86804688 17.04101562 8.02734375 17.73828125 C4.24280575 22.15455047 4.71998511 26.3584185 4.6875 32 C4.66236328 33.02673828 4.63722656 34.05347656 4.61132812 35.11132812 C4.55258915 37.637104 4.51621288 40.16115228 4.5 42.6875 C4.17 42.6875 3.84 42.6875 3.5 42.6875 C3.41305958 38.58346637 3.35962851 34.47966871 3.3125 30.375 C3.28736328 29.20775391 3.26222656 28.04050781 3.23632812 26.83789062 C3.22182617 25.16049805 3.22182617 25.16049805 3.20703125 23.44921875 C3.1913208 22.41756592 3.17561035 21.38591309 3.15942383 20.32299805 C3.55601743 17.25401745 4.27849796 16.69279746 6.5 14.6875 C7.00548595 10.0225149 7.00548595 10.0225149 5.375 5.75 C2.61019567 4.18327755 0.61811483 4.29773565 -2.5 4.6875 C-5.37647719 6.88142328 -6.02945551 8.88230232 -6.6875 12.375 C-6.92533203 13.58736328 -6.92533203 13.58736328 -7.16796875 14.82421875 C-7.27753906 15.43910156 -7.38710938 16.05398437 -7.5 16.6875 C-9.88313638 13.11279543 -10.14837918 11.90196465 -9.5 7.6875 C-7.07712154 3.39357305 -4.9080137 0.96407412 0 0 Z " fill="#1A4466" transform="translate(67.5,21.3125)"/>
<path d="M0 0 C0 3.55046666 -0.24095697 5.10239242 -1.5 8.25 C-1.7784375 8.95640625 -2.056875 9.6628125 -2.34375 10.390625 C-2.66859375 11.18726563 -2.66859375 11.18726563 -3 12 C-4.47906892 12.02689216 -5.95827483 12.04634621 -7.4375 12.0625 C-8.67306641 12.07990234 -8.67306641 12.07990234 -9.93359375 12.09765625 C-12 12 -12 12 -13 11 C-13.4375 7.75 -13.4375 7.75 -13 4 C-8.81449096 -0.90010814 -6.17646743 -1.60588153 0 0 Z " fill="#F0F5F7" transform="translate(27,19)"/>
<path d="M0 0 C1.25 6.625 1.25 6.625 -1 10 C-3.475 9.505 -3.475 9.505 -6 9 C-6 8.67 -6 8.34 -6 8 C-4.35 8 -2.7 8 -1 8 C-1.33 6.68 -1.66 5.36 -2 4 C-3.32 3.67 -4.64 3.34 -6 3 C-6.33 4.32 -6.66 5.64 -7 7 C-7 6.01 -7 5.02 -7 4 C-12.31411494 5.92391649 -12.31411494 5.92391649 -16 10 C-16.76681518 17.65819313 -16.28417574 24.77275664 -13.65625 32.01171875 C-13 34 -13 34 -13 37 C-13.99 37.495 -13.99 37.495 -15 38 C-19.38691152 28.93241056 -20.46832098 19.89392126 -19 10 C-16.66451998 5.20858541 -13.65950339 2.81281799 -8.9375 0.5 C-5.89423447 -0.01800264 -3.08116797 -0.14672228 0 0 Z " fill="#224B61" transform="translate(22,5)"/>
<path d="M0 0 C1.32 0 2.64 0 4 0 C4 10.56 4 21.12 4 32 C2.68 32 1.36 32 0 32 C0 21.44 0 10.88 0 0 Z " fill="#FDFDFD" transform="translate(173,23)"/>
<path d="M0 0 C0.66 0 1.32 0 2 0 C2.28571429 7.42857143 2.28571429 7.42857143 0 11 C-0.66 11 -1.32 11 -2 11 C-2.103125 11.639375 -2.20625 12.27875 -2.3125 12.9375 C-2.539375 13.618125 -2.76625 14.29875 -3 15 C-3.99 15.33 -4.98 15.66 -6 16 C-6.1546875 17.11375 -6.1546875 17.11375 -6.3125 18.25 C-7.08657898 21.34631592 -7.70520757 22.78170065 -10 25 C-13.6875 26.25 -13.6875 26.25 -17 27 C-14.69 27.99 -12.38 28.98 -10 30 C-10.639375 30.12375 -11.27875 30.2475 -11.9375 30.375 C-12.618125 30.58125 -13.29875 30.7875 -14 31 C-14.33 31.66 -14.66 32.32 -15 33 C-15 32.34 -15 31.68 -15 31 C-16.65 31 -18.3 31 -20 31 C-20.33 29.35 -20.66 27.7 -21 26 C-20.1646875 25.63261719 -20.1646875 25.63261719 -19.3125 25.2578125 C-10.34217819 20.86356702 -4.93162986 14.21866587 -1.5 4.875 C-0.97987329 3.2563298 -0.4719958 1.6333539 0 0 Z " fill="#0D86EA" transform="translate(55,34)"/>
<path d="M0 0 C0.70125 0.639375 1.4025 1.27875 2.125 1.9375 C5.2420541 4.49399968 5.2420541 4.49399968 11 5 C11 12.92 11 20.84 11 29 C10.34 29 9.68 29 9 29 C9 22.07 9 15.14 9 8 C8.01 8 7.02 8 6 8 C6 14.27 6 20.54 6 27 C5.34 27.33 4.68 27.66 4 28 C3.98541748 27.37955811 3.97083496 26.75911621 3.95581055 26.11987305 C3.88133412 23.30845367 3.78467436 20.49822251 3.6875 17.6875 C3.66494141 16.71103516 3.64238281 15.73457031 3.61914062 14.72851562 C3.58369141 13.79072266 3.54824219 12.85292969 3.51171875 11.88671875 C3.48553467 11.02264404 3.45935059 10.15856934 3.43237305 9.26831055 C2.91338284 6.54559005 1.92646854 5.89571169 0 4 C0 2.68 0 1.36 0 0 Z " fill="#182C3F" transform="translate(60,35)"/>
<path d="M0 0 C0 0.99 0 1.98 0 3 C-0.825 3.495 -1.65 3.99 -2.5 4.5 C-5.3999235 7.3999235 -5.409321 8.05546336 -5.5 12 C-5.2315276 18.21681407 -3.7444805 24.05007544 -2 30 C-2.99 30.33 -3.98 30.66 -5 31 C-7.76668467 24.74488683 -9.17183404 19.9995528 -9.3125 13.0625 C-9.34988281 11.85722656 -9.38726563 10.65195312 -9.42578125 9.41015625 C-8.92560038 5.40412048 -7.81153616 3.832401 -5 1 C-3 0 -3 0 0 0 Z " fill="#C7CFD3" transform="translate(14,9)"/>
<path d="M0 0 C7.35678392 -0.36180905 7.35678392 -0.36180905 10 1.125 C11.47271848 3.88634715 11.39191116 5.93002928 11 9 C7.91111478 11.05925681 7.29064073 11.2390374 3.8125 11.125 C1.9253125 11.063125 1.9253125 11.063125 0 11 C0 7.37 0 3.74 0 0 Z M4 4 C4 4.99 4 5.98 4 7 C4.99 6.67 5.98 6.34 7 6 C6.01 5.34 5.02 4.68 4 4 Z " fill="#4875C5" transform="translate(93,41)"/>
<path d="M0 0 C1.32 0.33 2.64 0.66 4 1 C3.21654285 2.17219543 2.42297164 3.33763668 1.625 4.5 C1.18414062 5.1496875 0.74328125 5.799375 0.2890625 6.46875 C-0.13632813 6.9740625 -0.56171875 7.479375 -1 8 C-1.66 8 -2.32 8 -3 8 C-2.13375 9.39025391 -2.13375 9.39025391 -1.25 10.80859375 C-0.49988336 12.01815684 0.25011031 13.22779619 1 14.4375 C1.3815625 15.04916016 1.763125 15.66082031 2.15625 16.29101562 C5 20.88671875 5 20.88671875 5 22 C2.74609375 22.32421875 2.74609375 22.32421875 0 22 C-2.08984375 19.76953125 -2.08984375 19.76953125 -3.9375 16.8125 C-4.87916016 15.36810547 -4.87916016 15.36810547 -5.83984375 13.89453125 C-7 11 -7 11 -6.35546875 8.34375 C-4.52819316 5.18419566 -2.41576162 2.73362499 0 0 Z " fill="#EEF2F9" transform="translate(186,33)"/>
<path d="M0 0 C0.33 0 0.66 0 1 0 C1.66 1.98 2.32 3.96 3 6 C4.258125 5.938125 5.51625 5.87625 6.8125 5.8125 C9.35561851 5.6874286 10.59214277 5.73780607 12.75 7.125 C14.56032474 9.8404871 14.29152862 11.96261285 14.1875 15.1875 C14.16042969 16.27417969 14.13335937 17.36085938 14.10546875 18.48046875 C14.07066406 19.31191406 14.03585938 20.14335937 14 21 C13.34 21.33 12.68 21.66 12 22 C11.82984375 21.38511719 11.6596875 20.77023438 11.484375 20.13671875 C10.04878395 15.23314352 10.04878395 15.23314352 7.3125 11 C3.90308482 9.5256583 0.69868745 9.30822395 -3 9 C-2.01 8.67 -1.02 8.34 0 8 C0 5.36 0 2.72 0 0 Z " fill="#14A4DC" transform="translate(36,8)"/>
<path d="M0 0 C6.40818182 -0.36272727 6.40818182 -0.36272727 8.9375 1.1875 C10.36405327 3.62103204 10.35571424 5.22542896 10 8 C8 10 8 10 6.0546875 10.1953125 C4.03645833 10.13020833 2.01822917 10.06510417 0 10 C0 6.7 0 3.4 0 0 Z " fill="#4F7AC7" transform="translate(93,28)"/>
<path d="M0 0 C0.99 0.33 1.98 0.66 3 1 C3.66 4.63 4.32 8.26 5 12 C5.33 10.02 5.66 8.04 6 6 C6.99 6.33 7.98 6.66 9 7 C8.34 8.32 7.68 9.64 7 11 C9.97 11 12.94 11 16 11 C15.67 11.66 15.34 12.32 15 13 C12.36 12.67 9.72 12.34 7 12 C6.67 14.64 6.34 17.28 6 20 C4.68 19.67 3.36 19.34 2 19 C2 14.71 2 10.42 2 6 C1.01 6 0.02 6 -1 6 C-1.042721 4.33388095 -1.04063832 2.66617115 -1 1 C-0.67 0.67 -0.34 0.34 0 0 Z " fill="#334862" transform="translate(27,22)"/>
<path d="M0 0 C3.61745151 1.20581717 3.95114287 2.13553592 5.875 5.3125 C9.65754853 11.19128849 13.67024946 14.05592998 20 17 C20 18.98 20 20.96 20 23 C19.67 21.68 19.34 20.36 19 19 C17.96875 18.773125 16.9375 18.54625 15.875 18.3125 C8.66826969 16.19543234 5.09521469 11.08665593 1.1015625 5.0859375 C0 3 0 3 0 0 Z " fill="#1B334B" transform="translate(8,41)"/>
<path d="M0 0 C0.99 0.33 1.98 0.66 3 1 C3 1.99 3 2.98 3 4 C5.64 4 8.28 4 11 4 C10.67 4.66 10.34 5.32 10 6 C7.69 6 5.38 6 3 6 C2.67 6.66 2.34 7.32 2 8 C1.34 7.67 0.68 7.34 0 7 C-2.20266316 6.61212744 -4.41224568 6.26290505 -6.625 5.9375 C-7.81351563 5.76089844 -9.00203125 5.58429687 -10.2265625 5.40234375 C-11.59941406 5.20318359 -11.59941406 5.20318359 -13 5 C-12.67 4.34 -12.34 3.68 -12 3 C-8.37 3 -4.74 3 -1 3 C-0.67 2.01 -0.34 1.02 0 0 Z " fill="#A5D8F5" transform="translate(50,57)"/>
<path d="M0 0 C2.76223278 2.76223278 2.57856291 5.20706617 3 9 C2.38511719 9.26554687 1.77023438 9.53109375 1.13671875 9.8046875 C0.32847656 10.15789063 -0.47976562 10.51109375 -1.3125 10.875 C-2.51326172 11.39707031 -2.51326172 11.39707031 -3.73828125 11.9296875 C-6.1961834 13.02571894 -6.1961834 13.02571894 -9 15 C-9.66 14.67 -10.32 14.34 -11 14 C-10.25 9.25 -10.25 9.25 -8 7 C-6.01178687 6.60235737 -4.01055661 6.26224651 -2 6 C-1.34 4.02 -0.68 2.04 0 0 Z " fill="#16A7E1" transform="translate(23,8)"/>
<path d="M0 0 C2 2 2 2 2.359375 4.73828125 C1.91417303 8.77897301 0.55935175 10.86253918 -1.75 14.1875 C-2.44609375 15.21230469 -3.1421875 16.23710938 -3.859375 17.29296875 C-5.77009559 19.70926321 -7.44262941 21.32388549 -10 23 C-10.33 22.01 -10.66 21.02 -11 20 C-9.70703125 18.125 -9.70703125 18.125 -7.8125 16 C-3.76024567 11.08056325 -1.82195073 6.05430833 0 0 Z " fill="#DADEE0" transform="translate(50,31)"/>
<path d="M0 0 C1.670625 0.061875 1.670625 0.061875 3.375 0.125 C3.5 3 3.5 3 3.375 6.125 C1.375 8.125 1.375 8.125 -1.6875 8.3125 C-4.625 8.125 -4.625 8.125 -5.625 7.125 C-5.8125 4.6875 -5.8125 4.6875 -5.625 2.125 C-3.625 0.125 -3.625 0.125 0 0 Z " fill="#4B77C6" transform="translate(205.625,44.875)"/>
<path d="M0 0 C0.33 0 0.66 0 1 0 C1.375 2.125 1.375 2.125 1 5 C-3.17002855 10.34619045 -7.37670769 12.67087389 -14 14 C-16.81555285 14.30321338 -19.14775755 14.25019671 -22 14 C-22.66 13.34 -23.32 12.68 -24 12 C-23.31035156 11.98582031 -22.62070312 11.97164062 -21.91015625 11.95703125 C-14.93749575 11.60313764 -9.56377664 10.37236501 -4 6 C-2.36178618 4.06681693 -1.24280895 2.22669937 0 0 Z " fill="#1064E2" transform="translate(68,69)"/>
<path d="M0 0 C2 2 2 2 2.265625 4.13671875 C2.23308174 9.44940666 2.05755804 14.06186071 0 19 C-2.078125 20.1875 -2.078125 20.1875 -4 21 C-3.67 19.741875 -3.34 18.48375 -3 17.1875 C-1.77549156 11.77206832 -1.81411052 6.52504829 -2 1 C-1.34 0.67 -0.68 0.34 0 0 Z " fill="#2B5575" transform="translate(56,15)"/>
<path d="M0 0 C2.89684158 -0.10829314 5.78961019 -0.18743954 8.6875 -0.25 C9.50412109 -0.28351562 10.32074219 -0.31703125 11.16210938 -0.3515625 C15.30802014 -0.41870276 17.42988673 -0.35678056 21.02734375 1.89453125 C23.09309058 4.09935807 23.81930582 5.01854597 24 8 C23.5625 10.75 23.5625 10.75 23 13 C22.67 13 22.34 13 22 13 C21.896875 11.906875 21.79375 10.81375 21.6875 9.6875 C20.94036802 5.557928 20.94036802 5.557928 18 3 C15.82066669 2.60096561 15.82066669 2.60096561 13.5 2.75 C12.7265625 2.76546875 11.953125 2.7809375 11.15625 2.796875 C8.8177193 2.93528295 8.8177193 2.93528295 6 4 C2.8125 2.5625 2.8125 2.5625 0 1 C0 0.67 0 0.34 0 0 Z " fill="#407288" transform="translate(23,17)"/>
<path d="M0 0 C0.99 0.66 1.98 1.32 3 2 C3 6 3 6 2.0390625 7.890625 C0.73025962 10.54759325 0.5853216 12.80549761 0.375 15.75 C0.30023438 16.73484375 0.22546875 17.7196875 0.1484375 18.734375 C0.09945313 19.48203125 0.05046875 20.2296875 0 21 C-0.66 21 -1.32 21 -2 21 C-2 14.4 -2 7.8 -2 1 C-1.34 0.67 -0.68 0.34 0 0 Z " fill="#34CCFB" transform="translate(2,7)"/>
<path d="M0 0 C1.875 0.6875 1.875 0.6875 2.875 1.6875 C3.0625 4.125 3.0625 4.125 2.875 6.6875 C2.215 7.3475 1.555 8.0075 0.875 8.6875 C-3.68055556 8.13194444 -3.68055556 8.13194444 -5.125 6.6875 C-5.375 4.25 -5.375 4.25 -5.125 1.6875 C-2.125 -0.3125 -2.125 -0.3125 0 0 Z " fill="#56687F" transform="translate(69.125,28.3125)"/>
<path d="M0 0 C3.05214016 0.36335002 4.35762056 1.29705161 6.625 3.3125 C5.305 3.3125 3.985 3.3125 2.625 3.3125 C2.625 4.6325 2.625 5.9525 2.625 7.3125 C0.645 7.9725 -1.335 8.6325 -3.375 9.3125 C-4.375 8.3125 -4.375 8.3125 -4.5625 5.375 C-4.33399212 1.64270467 -3.79243801 0.499005 0 0 Z " fill="#556B79" transform="translate(41.375,4.6875)"/>
<path d="M0 0 C0.66 0 1.32 0 2 0 C2.28571429 7.42857143 2.28571429 7.42857143 0 11 C-0.66 11 -1.32 11 -2 11 C-2.103125 11.639375 -2.20625 12.27875 -2.3125 12.9375 C-2.539375 13.618125 -2.76625 14.29875 -3 15 C-3.99 15.33 -4.98 15.66 -6 16 C-7.20882096 18.00016466 -7.20882096 18.00016466 -8 20 C-8.66 19.67 -9.32 19.34 -10 19 C-9.52949219 18.38253906 -9.05898438 17.76507813 -8.57421875 17.12890625 C-4.52022054 11.61446148 -1.68604398 6.64783055 0 0 Z " fill="#0B8CE1" transform="translate(55,34)"/>
<path d="M0 0 C0.33 0 0.66 0 1 0 C1.27615058 1.59987236 1.52007625 3.205333 1.75 4.8125 C1.88921875 5.70582031 2.0284375 6.59914063 2.171875 7.51953125 C2.11515625 8.33808594 2.0584375 9.15664063 2 10 C1.34902344 10.44085938 0.69804688 10.88171875 0.02734375 11.3359375 C-2.21356232 12.8302584 -2.21356232 12.8302584 -2.54589844 15.36010742 C-2.5668457 16.26607666 -2.58779297 17.1720459 -2.609375 18.10546875 C-2.64160156 19.08837891 -2.67382812 20.07128906 -2.70703125 21.08398438 C-2.72121094 22.10814453 -2.73539062 23.13230469 -2.75 24.1875 C-2.77964844 25.22326172 -2.80929688 26.25902344 -2.83984375 27.32617188 C-2.91057245 29.88419312 -2.96325257 32.44130158 -3 35 C-3.33 35 -3.66 35 -4 35 C-4.08694042 30.89596637 -4.14037149 26.79216871 -4.1875 22.6875 C-4.21263672 21.52025391 -4.23777344 20.35300781 -4.26367188 19.15039062 C-4.27817383 17.47299805 -4.27817383 17.47299805 -4.29296875 15.76171875 C-4.3086792 14.73006592 -4.32438965 13.69841309 -4.34057617 12.63549805 C-3.94338563 9.56189814 -3.2306172 9.0048766 -1 7 C-0.26958147 3.38976901 -0.26958147 3.38976901 0 0 Z " fill="#254C6C" transform="translate(75,29)"/>
<path d="M0 0 C0 0.99 0 1.98 0 3 C-0.56589844 3.14695313 -1.13179687 3.29390625 -1.71484375 3.4453125 C-3.97411985 4.13619834 -5.95118095 4.81748922 -8 6 C-9.14031566 9.07797583 -9.14031566 9.07797583 -9 12 C-9.33 12 -9.66 12 -10 12 C-10.33 10.02 -10.66 8.04 -11 6 C-12.65 5.67 -14.3 5.34 -16 5 C-16 4.01 -16 3.02 -16 2 C-15.40832031 2.02320313 -14.81664063 2.04640625 -14.20703125 2.0703125 C-9.09358157 2.18709602 -4.7300116 0 0 0 Z " fill="#F4F5F5" transform="translate(40,52)"/>
<path d="M0 0 C0.66 0 1.32 0 2 0 C2.00386719 0.94359375 2.00386719 0.94359375 2.0078125 1.90625 C2.32537817 8.93503694 4.28287269 12.83568326 9 18 C8.34 18.66 7.68 19.32 7 20 C6.03760548 18.75312408 5.08025991 17.50235031 4.125 16.25 C3.59132813 15.55390625 3.05765625 14.8578125 2.5078125 14.140625 C-0.18569469 10.31668215 -1.36349365 7.72541739 -1 3 C-0.67 2.01 -0.34 1.02 0 0 Z " fill="#294466" transform="translate(27,57)"/>
<path d="M0 0 C0.33 0 0.66 0 1 0 C1.45732667 5.71658336 0.52273754 8.48649253 -3 13 C-3.33 12.01 -3.66 11.02 -4 10 C-3.67 9.34 -3.34 8.68 -3 8 C-5.97 8 -8.94 8 -12 8 C-11.67 6.68 -11.34 5.36 -11 4 C-10.67 4.66 -10.34 5.32 -10 6 C-5.545 5.505 -5.545 5.505 -1 5 C-0.67 3.35 -0.34 1.7 0 0 Z " fill="#0D2F49" transform="translate(46,25)"/>
<path d="M0 0 C3.125 -0.1875 3.125 -0.1875 6 0 C7.25 6.625 7.25 6.625 5 10 C3.35 9.67 1.7 9.34 0 9 C0 8.67 0 8.34 0 8 C1.65 8 3.3 8 5 8 C4.67 6.68 4.34 5.36 4 4 C2.68 3.67 1.36 3.34 0 3 C-0.33 4.32 -0.66 5.64 -1 7 C-1.625 5.1875 -1.625 5.1875 -2 3 C-1.34 2.01 -0.68 1.02 0 0 Z " fill="#173849" transform="translate(16,5)"/>
<path d="M0 0 C1.65 0 3.3 0 5 0 C5 3.96 5 7.92 5 12 C4.01 12.495 4.01 12.495 3 13 C2.49242138 11.58603098 1.99425075 10.16868271 1.5 8.75 C1.08234375 7.56664062 1.08234375 7.56664062 0.65625 6.359375 C0 4 0 4 0 0 Z " fill="#20ADE4" transform="translate(45,17)"/>
<path d="M0 0 C0.33 1.32 0.66 2.64 1 4 C-0.09918816 4.98475214 -1.2045602 5.96260473 -2.3125 6.9375 C-2.92738281 7.48277344 -3.54226562 8.02804688 -4.17578125 8.58984375 C-7.89334331 11.46359086 -11.4850672 11.08518741 -16 11 C-15.67 10.01 -15.34 9.02 -15 8 C-13.109375 7.41015625 -13.109375 7.41015625 -10.75 7.0625 C-6.55450546 6.26749387 -4.08152552 5.08152552 -1 2 C-0.67 1.34 -0.34 0.68 0 0 Z " fill="#2B4E67" transform="translate(42,44)"/>
<path d="M0 0 C0.66 0.66 1.32 1.32 2 2 C-2.455 3.485 -2.455 3.485 -7 5 C-7 6.32 -7 7.64 -7 9 C-7.66 9 -8.32 9 -9 9 C-9.1875 5.625 -9.1875 5.625 -9 2 C-5.54754176 -0.30163882 -4.05261287 -0.34490322 0 0 Z " fill="#E6EAED" transform="translate(71,25)"/>
<path d="M0 0 C3.71198163 -0.34530062 5.57283878 -0.25629673 8.8125 1.6875 C11.20339329 4.21501576 11.7153924 5.58470886 12 9 C11.29875 8.236875 10.5975 7.47375 9.875 6.6875 C7.03647396 4.03409522 4.53050949 2.55999257 1 1 C1.33 2.32 1.66 3.64 2 5 C1.34 5 0.68 5 0 5 C0 5.66 0 6.32 0 7 C-1.65 7 -3.3 7 -5 7 C-5 6.34 -5 5.68 -5 5 C-3.35 4.67 -1.7 4.34 0 4 C0 2.68 0 1.36 0 0 Z " fill="#0E2739" transform="translate(44,8)"/>
<path d="M0 0 C0 0.99 0 1.98 0 3 C-1.62935241 4.37868281 -3.29749607 5.71274093 -5 7 C-6.14814997 9.29629994 -6.30769809 11.07698086 -6.5625 13.625 C-6.64628906 14.44226562 -6.73007813 15.25953125 -6.81640625 16.1015625 C-6.87699219 16.72804688 -6.93757812 17.35453125 -7 18 C-7.33 18 -7.66 18 -8 18 C-8.7585032 6.48760704 -8.7585032 6.48760704 -6.9921875 3.0234375 C-4.66858333 0.64417814 -3.33845581 0 0 0 Z " fill="#E7EBED" transform="translate(14,9)"/>
<path d="M0 0 C0.33 0 0.66 0 1 0 C1 2.64 1 5.28 1 8 C-2.96 8 -6.92 8 -11 8 C-8 6 -8 6 -4.9375 4.5625 C-1.7770602 3.17919845 -1.7770602 3.17919845 0 0 Z " fill="#CFD8DE" transform="translate(81,78)"/>
<path d="M0 0 C2.83301242 3.50753918 2.14276823 7.71695317 2 12 C0 10 0 10 -0.125 6.875 C-0.08375 5.92625 -0.0425 4.9775 0 4 C-0.66 4 -1.32 4 -2 4 C-3 3 -4 2 -5 1 C-7.09989652 -0.17574711 -7.09989652 -0.17574711 -9 -1 C-5.39482618 -2.33524956 -3.34159621 -1.84667159 0 0 Z " fill="#1B364D" transform="translate(76,25)"/>
<path d="M0 0 C1.43229167 1.20442708 2.86458333 2.40885417 4.296875 3.61328125 C6.15670471 5.12759214 8.08131645 6.56098734 10 8 C6.7 8 3.4 8 0 8 C0 5.36 0 2.72 0 0 Z " fill="#D4DDE3" transform="translate(0,78)"/>
<path d="M0 0 C-0.25 1.875 -0.25 1.875 -1 4 C-3.25197782 5.63074256 -4.41336989 6.06704344 -7.1875 5.75 C-9 5 -9 5 -10 3 C-6.48812804 0.59185923 -4.27343092 -0.36629408 0 0 Z " fill="#1096E1" transform="translate(39,46)"/>
<path d="M0 0 C0.66 0.33 1.32 0.66 2 1 C1.57405412 2.44096586 1.13373367 3.87768712 0.6875 5.3125 C0.44386719 6.11300781 0.20023438 6.91351563 -0.05078125 7.73828125 C-1.04182023 10.09964573 -2.08074943 11.33879993 -4 13 C-4.66 12.67 -5.32 12.34 -6 12 C-4.43358249 7.69235185 -2.31663844 3.93828536 0 0 Z " fill="#284459" transform="translate(53,35)"/>
<path d="M0 0 C0.99 0.33 1.98 0.66 3 1 C1.54955729 5.10958767 -0.51110752 8.43258745 -3 12 C-3.99 11.34 -4.98 10.68 -6 10 C-5.65066406 9.44570312 -5.30132812 8.89140625 -4.94140625 8.3203125 C-4.48636719 7.59585938 -4.03132813 6.87140625 -3.5625 6.125 C-3.11003906 5.40570313 -2.65757813 4.68640625 -2.19140625 3.9453125 C-0.97538499 2.0222453 -0.97538499 2.0222453 0 0 Z " fill="#2C445D" transform="translate(68,63)"/>
<path d="M0 0 C0.99 0 1.98 0 3 0 C3 1.32 3 2.64 3 4 C-9.87 3.505 -9.87 3.505 -23 3 C-23 2.67 -23 2.34 -23 2 C-15.41 1.67 -7.82 1.34 0 1 C0 0.67 0 0.34 0 0 Z " fill="#56AFF4" transform="translate(23,60)"/>
<path d="M0 0 C0.33 1.32 0.66 2.64 1 4 C-0.06893218 5.03590338 -1.15578488 6.05333942 -2.25 7.0625 C-3.15492187 7.91521484 -3.15492187 7.91521484 -4.078125 8.78515625 C-4.71234375 9.18605469 -5.3465625 9.58695313 -6 10 C-7.32 9.67 -8.64 9.34 -10 9 C-6.7 6.03 -3.4 3.06 0 0 Z " fill="#22425F" transform="translate(41,36)"/>
<path d="M0 0 C-1 2 -1 2 -3.9375 3.4375 C-7.21743175 4.79632842 -7.21743175 4.79632842 -9 8 C-9.45139459 10.0492094 -9.45139459 10.0492094 -9.625 12.1875 C-9.74875 13.445625 -9.8725 14.70375 -10 16 C-10.33 16 -10.66 16 -11 16 C-12.77716921 9.36523494 -12.77716921 9.36523494 -10.68359375 5.6875 C-5.53766218 -0.5365209 -5.53766218 -0.5365209 0 0 Z " fill="#2A5C6E" transform="translate(15,7)"/>
<path d="M0 0 C0.33 0.99 0.66 1.98 1 3 C-0.109375 4.82421875 -0.109375 4.82421875 -1.75 6.6875 C-2.28109375 7.31011719 -2.8121875 7.93273438 -3.359375 8.57421875 C-5 10 -5 10 -8 10 C-6.23915938 6.0381086 -3.9706445 1.98532225 0 0 Z " fill="#1C3149" transform="translate(48,46)"/>
<path d="M0 0 C0.49628906 0.40992188 0.99257813 0.81984375 1.50390625 1.2421875 C5.93973103 4.76054568 9.44912349 6.84356739 15 8 C15 8.33 15 8.66 15 9 C8.21332388 9.71438696 8.21332388 9.71438696 4.91015625 7.76953125 C3.08296623 6.25621436 1.45854728 4.87332167 0 3 C0 2.01 0 1.02 0 0 Z " fill="#20364A" transform="translate(17,45)"/>
<path d="M0 0 C3.91593446 0.78318689 7.36406635 2.39179858 11 4 C10.360625 4.12375 9.72125 4.2475 9.0625 4.375 C8.381875 4.58125 7.70125 4.7875 7 5 C6.67 5.66 6.34 6.32 6 7 C6 6.34 6 5.68 6 5 C4.35 5 2.7 5 1 5 C0.67 3.35 0.34 1.7 0 0 Z " fill="#298DE7" transform="translate(34,60)"/>
<path d="M0 0 C0.66 1.32 1.32 2.64 2 4 C0.68 4 -0.64 4 -2 4 C-2 9.94 -2 15.88 -2 22 C-2.33 22 -2.66 22 -3 22 C-3.08685287 18.70849875 -3.14033895 15.4172904 -3.1875 12.125 C-3.21263672 11.18785156 -3.23777344 10.25070313 -3.26367188 9.28515625 C-3.27333984 8.38925781 -3.28300781 7.49335937 -3.29296875 6.5703125 C-3.3086792 5.74289551 -3.32438965 4.91547852 -3.34057617 4.06298828 C-3.22818604 3.38220215 -3.1157959 2.70141602 -3 2 C-2.01 1.34 -1.02 0.68 0 0 Z " fill="#1889E3" transform="translate(75,40)"/>
<path d="M0 0 C1.67542976 0.28604898 3.34385343 0.61781233 5 1 C5 2.32 5 3.64 5 5 C2.1875 5.625 2.1875 5.625 -1 6 C-1.99 5.34 -2.98 4.68 -4 4 C-3.34 4 -2.68 4 -2 4 C-1.67 3.01 -1.34 2.02 -1 1 C-0.67 0.67 -0.34 0.34 0 0 Z " fill="#83909A" transform="translate(16,8)"/>
<path d="M0 0 C2.97 0 5.94 0 9 0 C9 2.31 9 4.62 9 7 C7.4972763 6.02501855 5.99788037 5.04490611 4.5 4.0625 C3.6646875 3.51722656 2.829375 2.97195312 1.96875 2.41015625 C1.3190625 1.94480469 0.669375 1.47945313 0 1 C0 0.67 0 0.34 0 0 Z " fill="#E1F1F5" transform="translate(73,0)"/>
<path d="M0 0 C2 2 2 2 2.25 4.9375 C2 8 2 8 0 11 C-0.99 11 -1.98 11 -3 11 C-2.32829194 7.1936543 -1.27253436 3.64793184 0 0 Z " fill="#CDD4D9" transform="translate(50,31)"/>
<path d="M0 0 C0.99 0 1.98 0 3 0 C3.33 3.63 3.66 7.26 4 11 C3.01 11.495 3.01 11.495 2 12 C-0.13586678 8.79619983 -0.23132175 7.98060033 -0.125 4.3125 C-0.10695313 3.50425781 -0.08890625 2.69601563 -0.0703125 1.86328125 C-0.04710938 1.24839844 -0.02390625 0.63351563 0 0 Z " fill="#CBCFD4" transform="translate(29,58)"/>
<path d="M0 0 C0.33 0 0.66 0 1 0 C2.64451156 6.4410036 1.05498079 10.21782606 -2 16 C-2.33 15.34 -2.66 14.68 -3 14 C-3.66 13.67 -4.32 13.34 -5 13 C-4.360625 12.154375 -3.72125 11.30875 -3.0625 10.4375 C-0.8033727 7.09271435 -0.32208241 4.02603008 0 0 Z " fill="#188BCD" transform="translate(47,25)"/>
<path d="M0 0 C4.28806873 0.47645208 6.26647487 1.65902484 9 5 C9 5.66 9 6.32 9 7 C5.51375944 6.3543999 2.87501211 5.07639763 0 3 C0 2.01 0 1.02 0 0 Z " fill="#D2D8DC" transform="translate(45,9)"/>
<path d="M0 0 C0.66 0 1.32 0 2 0 C0.88081459 5.22286525 -1.3460081 7.63511281 -5.24609375 10.99609375 C-6.11427734 11.49302734 -6.11427734 11.49302734 -7 12 C-7.99 11.67 -8.98 11.34 -10 11 C-9.4225 10.5875 -8.845 10.175 -8.25 9.75 C-4.59663925 6.9084972 -1.84127058 4.29629801 0 0 Z " fill="#1F3F61" transform="translate(63,63)"/>
<path d="M0 0 C1.17539996 0.92652701 2.34010577 1.86663387 3.5 2.8125 C4.1496875 3.33457031 4.799375 3.85664062 5.46875 4.39453125 C7 6 7 6 7 9 C3.2273236 8.46104623 1.31787009 7.00464642 -1 4 C-0.60546875 1.86328125 -0.60546875 1.86328125 0 0 Z " fill="#E3E4E6" transform="translate(33,67)"/>
<path d="M0 0 C0.99 0 1.98 0 3 0 C3 2.31 3 4.62 3 7 C0.69 7 -1.62 7 -4 7 C-3.01 6.67 -2.02 6.34 -1 6 C-1.020625 5.195625 -1.04125 4.39125 -1.0625 3.5625 C-1 1 -1 1 0 0 Z " fill="#F0F3F4" transform="translate(42,23)"/>
<path d="M0 0 C5.61 0 11.22 0 17 0 C17 0.33 17 0.66 17 1 C15.01432292 1.48828125 13.02864583 1.9765625 11.04296875 2.46484375 C9.34316798 2.91010705 7.66698046 3.44433985 6 4 C2.8125 2.5625 2.8125 2.5625 0 1 C0 0.67 0 0.34 0 0 Z " fill="#194D62" transform="translate(23,17)"/>
<path d="M0 0 C2.64 0 5.28 0 8 0 C5.42215154 2.64752004 3.08351902 4.94432065 0 7 C0 4.69 0 2.38 0 0 Z " fill="#E8F7F9" transform="translate(0,0)"/>
<path d="M0 0 C0.99 0.33 1.98 0.66 3 1 C3.33 1.99 3.66 2.98 4 4 C2.68 4.99 1.36 5.98 0 7 C-0.66 6.67 -1.32 6.34 -2 6 C-1.125 1.125 -1.125 1.125 0 0 Z " fill="#2DC8F4" transform="translate(14,16)"/>
<path d="M0 0 C1.32 0.66 2.64 1.32 4 2 C0.25 5 0.25 5 -2 5 C-2 7.97 -2 10.94 -2 14 C-2.33 14 -2.66 14 -3 14 C-3.08114106 12.22992286 -3.13925505 10.45877902 -3.1875 8.6875 C-3.22230469 7.70136719 -3.25710938 6.71523438 -3.29296875 5.69921875 C-3 3 -3 3 -1.48828125 1.14453125 C-0.99714844 0.76683594 -0.50601562 0.38914062 0 0 Z " fill="#1794D1" transform="translate(13,13)"/>
<path d="M0 0 C4.43090471 1.20842856 6.98112756 2.51668565 10 6 C5.8333396 5.52651586 3.07115285 4.95303159 0 2 C0 1.34 0 0.68 0 0 Z " fill="#1E3554" transform="translate(35,75)"/>
<path d="M0 0 C0.33 0 0.66 0 1 0 C1.22197585 2.10277123 1.42713637 4.20732302 1.625 6.3125 C1.74101563 7.48425781 1.85703125 8.65601563 1.9765625 9.86328125 C2 13 2 13 0 16 C-1.16306443 12.45049966 -0.92365049 9.44176052 -0.5625 5.75 C-0.46066406 4.67234375 -0.35882813 3.5946875 -0.25390625 2.484375 C-0.17011719 1.66453125 -0.08632813 0.8446875 0 0 Z " fill="#DFE3E5" transform="translate(52,18)"/>
<path d="M0 0 C0.33 1.32 0.66 2.64 1 4 C1.66 4 2.32 4 3 4 C3 5.98 3 7.96 3 10 C2.01 10 1.02 10 0 10 C0 6.7 0 3.4 0 0 Z " fill="#1DB1E6" transform="translate(11,18)"/>
<path d="M0 0 C0.66 0 1.32 0 2 0 C2 1.98 2 3.96 2 6 C-1.63 5.67 -5.26 5.34 -9 5 C-9 4.67 -9 4.34 -9 4 C-6.03 4 -3.06 4 0 4 C0 2.68 0 1.36 0 0 Z " fill="#EAF8FB" transform="translate(50,57)"/>
<path d="M0 0 C1.9451 2.91765 2.45276317 4.62537285 3 8 C2.01 8.33 1.02 8.66 0 9 C-1.125 6.1875 -1.125 6.1875 -2 3 C-1.34 2.01 -0.68 1.02 0 0 Z " fill="#B9C3CC" transform="translate(9,31)"/>
<path d="M0 0 C0.66 0 1.32 0 2 0 C1.67 1.65 1.34 3.3 1 5 C-0.65 5.33 -2.3 5.66 -4 6 C-4 5.01 -4 4.02 -4 3 C-2.68 3 -1.36 3 0 3 C0 2.01 0 1.02 0 0 Z " fill="#213751" transform="translate(70,31)"/>
<path d="M0 0 C3.26460973 1.80412643 4.88929795 2.83394693 7 6 C6.67 6.99 6.34 7.98 6 9 C4.76302083 7.50260417 3.52604167 6.00520833 2.2890625 4.5078125 C1.24749008 3.28948839 0.13339903 2.13339903 -1 1 C-0.67 0.67 -0.34 0.34 0 0 Z " fill="#163C54" transform="translate(49,8)"/>
<path d="M0 0 C0 0.66 0 1.32 0 2 C-3.96 2 -7.92 2 -12 2 C-7.30614786 -1.12923476 -5.57971023 -0.92995171 0 0 Z " fill="#AABCD1" transform="translate(82,84)"/>
<path d="M0 0 C0 0.99 0 1.98 0 3 C-2.31 3.66 -4.62 4.32 -7 5 C-7 4.01 -7 3.02 -7 2 C-2.25 0 -2.25 0 0 0 Z " fill="#E8EAEB" transform="translate(40,52)"/>
<path d="M0 0 C3 1 3 1 4.6875 4.0625 C5.120625 5.031875 5.55375 6.00125 6 7 C5.34 7.66 4.68 8.32 4 9 C0 2.25 0 2.25 0 0 Z " fill="#264765" transform="translate(12,38)"/>
<path d="M0 0 C0.33 0 0.66 0 1 0 C1.33 3.63 1.66 7.26 2 11 C0.68 11 -0.64 11 -2 11 C-1.34 7.37 -0.68 3.74 0 0 Z " fill="#1481C9" transform="translate(78,29)"/>
<path d="M0 0 C2.625 1.0625 2.625 1.0625 5 3 C5.3125 6.1875 5.3125 6.1875 5 9 C4.773125 8.4225 4.54625 7.845 4.3125 7.25 C2.66961977 4.4336339 0.60466773 2.91922886 -2 1 C-1.34 0.67 -0.68 0.34 0 0 Z " fill="#173D5D" transform="translate(46,12)"/>
<path d="M0 0 C0.99 0.33 1.98 0.66 3 1 C4.1875 3.5625 4.1875 3.5625 5 6 C4.34 6.66 3.68 7.32 3 8 C0 3.375 0 3.375 0 0 Z " fill="#233C50" transform="translate(8,41)"/>
<path d="M0 0 C1.32 0 2.64 0 4 0 C3.67 1.32 3.34 2.64 3 4 C1.68 3.67 0.36 3.34 -1 3 C-0.67 2.01 -0.34 1.02 0 0 Z " fill="#28C5FA" transform="translate(45,17)"/>
</svg>
