<?xml version="1.0" encoding="utf-8"?>
<!-- Generator: Adobe Illustrator 26.0.3, SVG Export Plug-In . SVG Version: 6.00 Build 0)  -->
<svg version="1.1" id="Layer_1" xmlns="http://www.w3.org/2000/svg" xmlns:xlink="http://www.w3.org/1999/xlink" x="0px" y="0px"
	 viewBox="0 0 164 38" style="enable-background:new 0 0 164 38;" xml:space="preserve">
<style type="text/css">
	.st0{fill:#FFFFFF;}
	.st1{fill:url(#SVGID_1_);}
	.st2{fill:none;stroke:#D0D5DD;stroke-width:0.2;}
	.st3{fill:url(#SVGID_00000082336623431877821570000003575308058366561725_);}
	.st4{fill:url(#SVGID_00000142897540648589642490000006800090467539355298_);}
	.st5{opacity:0.31;fill:url(#SVGID_00000082359135504346609140000005392672173875837840_);enable-background:new    ;}
</style>
<g>
	<path class="st0" d="M11,3.1h16c4.4,0,7.9,3.5,7.9,7.9v16c0,4.4-3.5,7.9-7.9,7.9H11c-4.4,0-7.9-3.5-7.9-7.9V11
		C3.1,6.6,6.6,3.1,11,3.1z"/>
	
		<linearGradient id="SVGID_1_" gradientUnits="userSpaceOnUse" x1="19" y1="37" x2="19" y2="5" gradientTransform="matrix(1 0 0 -1 0 40)">
		<stop  offset="0" style="stop-color:#FFFFFF"/>
		<stop  offset="1" style="stop-color:#D0D5DD"/>
	</linearGradient>
	<path class="st1" d="M11,3.1h16c4.4,0,7.9,3.5,7.9,7.9v16c0,4.4-3.5,7.9-7.9,7.9H11c-4.4,0-7.9-3.5-7.9-7.9V11
		C3.1,6.6,6.6,3.1,11,3.1z"/>
	<path class="st2" d="M11,3.1h16c4.4,0,7.9,3.5,7.9,7.9v16c0,4.4-3.5,7.9-7.9,7.9H11c-4.4,0-7.9-3.5-7.9-7.9V11
		C3.1,6.6,6.6,3.1,11,3.1z"/>
	
		<linearGradient id="SVGID_00000107556234622835317350000007051290530857620149_" gradientUnits="userSpaceOnUse" x1="10.199" y1="14.7862" x2="27.8348" y2="32.422" gradientTransform="matrix(1 0 0 -1 0 40)">
		<stop  offset="0" style="stop-color:#0076C1"/>
		<stop  offset="7.370000e-02" style="stop-color:#0B82C6"/>
		<stop  offset="0.2766" style="stop-color:#269ED3"/>
		<stop  offset="0.4546" style="stop-color:#36AFDA"/>
		<stop  offset="0.587" style="stop-color:#3CB5DD"/>
	</linearGradient>
	<path style="fill:url(#SVGID_00000107556234622835317350000007051290530857620149_);" d="M18.4,14.2c4.4-1.7,9.1-0.4,11.3,1.7
		c0.5,0.5,0.9,0.9,1.2,1.4c0.2-1.1,0.2-2.1,0-3.2c-0.7-3.8-4.2-5.9-7.4-4.8c-3.2,1.1-4.4,3.2-4.4,3.2s-1.2-2.1-4.4-3.2
		c-3.2-1.1-6.8,1-7.4,4.8c-0.5,2.8,0.5,5.8,2.5,8.5c0.4,0.1,0.9,0.3,1.3,0.3c2.8,0.4,3.9-0.4,5.1-0.9c0.8-0.3,1.4,0,1.4,0.3
		c0,0.4-1.6,1.1-1.3,1.3c1.3,0.6,3,0.6,4.2-0.5c1.5-1.3,2.1-0.4,2.1-0.4s-0.8,1.9-3.1,2.9c-1.9,0.8-3.9,1-5.7,0.8
		c1.6,1.1,3.4,2.1,5.4,2.7c5.7-1.9,9.9-6,11.4-10.3c-1-1-2.2-1.6-3.7-1.8c-2.8-0.4-3.9,0.3-5.1,0.8c-0.8,0.3-1.4-0.1-1.4-0.3
		c0.1-0.4,1.6-1.1,1.3-1.3c-1.3-0.6-3-0.7-4.2,0.4c-1.6,1.3-2.1,0.4-2.1,0.4S16,15.1,18.4,14.2z M17.3,19.5h1.1v-1.1h1.3v1.1h1.1
		v1.3h-1.1v1.1h-1.3v-1.1h-1.1V19.5z"/>
	
		<linearGradient id="SVGID_00000003792867942796807670000010693507334212882090_" gradientUnits="userSpaceOnUse" x1="10.1386" y1="14.7465" x2="27.8272" y2="32.4351" gradientTransform="matrix(1 0 0 -1 0 40)">
		<stop  offset="0" style="stop-color:#00A482"/>
		<stop  offset="1" style="stop-color:#79DD83"/>
	</linearGradient>
	<path style="fill:url(#SVGID_00000003792867942796807670000010693507334212882090_);" d="M17.3,19.5h1.1v-1.1h1.3v1.1h1.1v1.3h-1.1
		c1.6,0.8,4.6,2,8.2,2.6c1.2-1.4,2.1-2.9,2.6-4.4c-1-1-2.2-1.6-3.7-1.8c-2.8-0.4-3.9,0.3-5.1,0.8c-0.8,0.3-1.4-0.1-1.4-0.3
		c0.1-0.4,1.6-1.1,1.3-1.3c-1.3-0.6-3-0.7-4.2,0.4c-1.6,1.3-2.1,0.4-2.1,0.4s0.8-1.9,3.1-2.8c4.4-1.7,9.1-0.4,11.3,1.7
		c0.5,0.5,0.9,0.9,1.2,1.4c0.2-1.1,0.2-2.1,0-3.2c-0.7-3.8-4.2-5.9-7.4-4.8c-3.2,1.1-4.4,3.2-4.4,3.2s-1.2-2.1-4.4-3.2
		c-1.8-0.6-3.8-0.2-5.2,1c0.7,1.5,1.5,2.8,3.8,5.6C15,18.1,17.3,19.5,17.3,19.5z"/>
	
		<linearGradient id="SVGID_00000000201053168244264380000004710248511967429038_" gradientUnits="userSpaceOnUse" x1="24.8609" y1="25.4927" x2="28.5289" y2="28.8868" gradientTransform="matrix(1 0 0 -1 0 40)">
		<stop  offset="0" style="stop-color:#00A482"/>
		<stop  offset="1" style="stop-color:#79DD83"/>
	</linearGradient>
	<path style="opacity:0.31;fill:url(#SVGID_00000000201053168244264380000004710248511967429038_);enable-background:new    ;" d="
		M27.3,10.6c-3-1.5-6.1,0.8-7.1,2.1c1.7-0.4,3.2-0.5,5.1-0.1c2.8,0.6,3.8,1.6,5.1,3.1C30.1,12.9,28.4,11.2,27.3,10.6z"/>
</g>
<g>
	<path class="st0" d="M46.2,29V11h7c1.2,0,2.2,0.1,3,0.4c0.8,0.2,1.5,0.8,2,1.5s0.9,1.7,0.9,2.8c0,1-0.3,1.9-0.9,2.6
		c-0.6,0.7-1.4,1.2-2.4,1.4c1.3,0.2,2.2,0.7,2.9,1.5c0.7,0.8,1,1.8,1,2.9c0,1.4-0.5,2.6-1.4,3.5C57.4,28.5,56,29,54.1,29H46.2z
		 M49.3,18.6h4c0.8,0,1.4-0.2,1.9-0.7c0.5-0.5,0.7-1.1,0.7-1.8c0-0.8-0.3-1.4-0.8-1.8c-0.5-0.4-1.2-0.6-1.9-0.6h-3.9V18.6z
		 M49.3,26.3h4.2c0.9,0,1.6-0.2,2.1-0.7s0.8-1.1,0.8-1.9c0-0.8-0.3-1.4-0.8-1.9c-0.5-0.5-1.2-0.7-2.1-0.7h-4.2V26.3z"/>
	<path class="st0" d="M67.6,29.3c-2,0-3.5-0.7-4.5-2.1c-1-1.4-1.6-3-1.6-4.9c0-2,0.6-3.6,1.7-4.9c1.1-1.3,2.7-2,4.5-2
		c1.8,0,3.3,0.6,4.4,1.9s1.7,2.9,1.7,5c0,2.1-0.6,3.8-1.8,5.1S69.5,29.3,67.6,29.3z M67.8,26.8c2,0,3-1.5,3-4.5
		c0-1.4-0.2-2.4-0.7-3.2c-0.5-0.8-1.2-1.2-2.2-1.2c-1,0-1.8,0.4-2.3,1.2s-0.8,1.9-0.8,3.2c0,1.5,0.3,2.6,0.8,3.3
		C66.1,26.4,66.8,26.8,67.8,26.8z"/>
	<path class="st0" d="M81.9,29.3c-2,0-3.5-0.7-4.5-2.1c-1-1.4-1.6-3-1.6-4.9c0-2,0.6-3.6,1.7-4.9c1.1-1.3,2.7-2,4.5-2
		c1.8,0,3.3,0.6,4.4,1.9s1.7,2.9,1.7,5c0,2.1-0.6,3.8-1.8,5.1S83.8,29.3,81.9,29.3z M82,26.8c2,0,3-1.5,3-4.5c0-1.4-0.2-2.4-0.7-3.2
		c-0.5-0.8-1.2-1.2-2.2-1.2c-1,0-1.8,0.4-2.3,1.2c-0.5,0.8-0.8,1.9-0.8,3.2c0,1.5,0.3,2.6,0.8,3.3C80.4,26.4,81.1,26.8,82,26.8z"/>
	<path class="st0" d="M103.4,29h-3.2l-3.4-6.8l-3,3.3V29H91V11h2.9v11.2c0.3-0.3,0.5-0.6,0.6-0.8l5.3-5.7h3.2l-4,4.4L103.4,29z"/>
	<path class="st0" d="M116.6,29h-2.9c-0.3-0.8-0.4-1.7-0.5-2.7c-0.8,2-2.3,3-4.5,3c-1.3,0-2.4-0.4-3.2-1.2s-1.2-1.8-1.2-2.9
		c0-3.1,2.7-4.6,8.1-4.6c0.2,0,0.5,0,0.9,0v-1c0-1.4-0.9-2.1-2.8-2.1c-1.8,0-2.9,0.7-3.1,2.1l-2.6-0.4c0.1-1.1,0.7-2,1.7-2.7
		c1-0.7,2.5-1.1,4.4-1.1c1,0,1.9,0.1,2.5,0.3s1.2,0.5,1.6,0.9c0.4,0.4,0.8,0.9,0.9,1.3c0.2,0.5,0.3,1.3,0.3,2.4v6
		C116.2,27.2,116.3,28.1,116.6,29z M113.3,22.2c-3.9,0-5.8,0.9-5.8,2.8c0,0.6,0.2,1,0.6,1.4c0.4,0.4,1,0.6,1.8,0.6
		c1.1,0,2-0.4,2.6-1.1c0.6-0.7,0.9-1.5,0.9-2.5V22.2z"/>
	<path class="st0" d="M119.9,29V11h6.6c2.5,0,4.4,0.9,5.9,2.6s2.2,3.9,2.2,6.4s-0.8,4.7-2.3,6.4s-3.7,2.6-6.6,2.6H119.9z
		 M123.2,26.4h2.7c1.5,0,2.7-0.5,3.7-1.6c1-1.1,1.5-2.7,1.5-4.9c0-1.8-0.4-3.2-1.3-4.5s-2.1-1.8-3.5-1.8h-3.1V26.4z"/>
	<path class="st0" d="M142.7,29.3c-2,0-3.5-0.7-4.5-2.1c-1-1.4-1.6-3-1.6-4.9c0-2,0.6-3.6,1.7-4.9c1.1-1.3,2.7-2,4.5-2
		c1.8,0,3.3,0.6,4.4,1.9s1.7,2.9,1.7,5c0,2.1-0.6,3.8-1.8,5.1C146,28.6,144.5,29.3,142.7,29.3z M142.8,26.8c2,0,3-1.5,3-4.5
		c0-1.4-0.2-2.4-0.7-3.2c-0.5-0.8-1.2-1.2-2.2-1.2c-1,0-1.8,0.4-2.3,1.2c-0.5,0.8-0.8,1.9-0.8,3.2c0,1.5,0.3,2.6,0.8,3.3
		C141.2,26.4,141.9,26.8,142.8,26.8z"/>
	<path class="st0" d="M159.5,24.1l2.6,0.3c-0.3,1.7-1,2.9-1.9,3.7c-1,0.8-2.1,1.2-3.5,1.2c-1.8,0-3.3-0.7-4.2-2
		c-1-1.3-1.5-3-1.5-4.9c0-2,0.5-3.7,1.6-5c1.1-1.3,2.5-2,4.3-2c2.9,0,4.6,1.5,5.2,4.6l-2.6,0.4c-0.2-1.7-1-2.5-2.4-2.5
		c-1,0-1.8,0.4-2.2,1.3s-0.7,2-0.7,3.2c0,1.3,0.2,2.4,0.7,3.1s1.1,1.1,2,1.1C158.2,26.7,159,25.8,159.5,24.1z"/>
</g>
</svg>
